<svg width="259" height="259" viewBox="0 0 259 259" fill="none" xmlns="http://www.w3.org/2000/svg">
<mask id="path-1-outside-1_8_88" maskUnits="userSpaceOnUse" x="-1.24927" y="-0.75" width="262" height="261" fill="black">
<rect fill="white" x="-1.24927" y="-0.75" width="262" height="261"/>
<path d="M9.52346 1.15909V30.25H1.62573V1.15909H9.52346ZM12.4709 7.52273V1.15909H37.755V7.52273H29.005V30.25H21.2209V7.52273H12.4709ZM47.3182 1.15909V4.56818C47.3182 5.49621 47.1288 6.42424 46.75 7.35227C46.3807 8.27083 45.9072 9.12784 45.3296 9.9233C44.7614 10.7093 44.1743 11.3674 43.5682 11.8977L40.3296 10.25C40.7273 9.56818 41.0824 8.77746 41.3949 7.87784C41.7074 6.97822 41.8637 5.875 41.8637 4.56818V1.15909H47.3182ZM66.6826 10.25C66.6068 9.30303 66.2517 8.56439 65.6172 8.03409C64.9922 7.50379 64.0405 7.23864 62.7621 7.23864C61.9477 7.23864 61.2801 7.33807 60.7593 7.53693C60.2479 7.72633 59.8691 7.98674 59.6229 8.31818C59.3767 8.64962 59.2488 9.02841 59.2394 9.45455C59.2204 9.80492 59.282 10.1222 59.424 10.4062C59.5755 10.6809 59.8123 10.9318 60.1343 11.1591C60.4562 11.3769 60.8682 11.5758 61.3701 11.7557C61.8719 11.9356 62.4685 12.0966 63.1598 12.2386L65.5462 12.75C67.156 13.0909 68.5339 13.5407 69.6797 14.0994C70.8255 14.6581 71.763 15.3163 72.4922 16.0739C73.2214 16.822 73.7564 17.6648 74.0973 18.6023C74.4477 19.5398 74.6276 20.5625 74.6371 21.6705C74.6276 23.5833 74.1494 25.2027 73.2024 26.5284C72.2555 27.8542 70.9013 28.8627 69.1399 29.554C67.388 30.2453 65.281 30.5909 62.8189 30.5909C60.2905 30.5909 58.0841 30.2169 56.1996 29.4688C54.3246 28.7206 52.8663 27.5701 51.8246 26.017C50.7924 24.4545 50.2716 22.4564 50.2621 20.0227H57.7621C57.8094 20.9129 58.032 21.661 58.4297 22.267C58.8274 22.8731 59.3861 23.3324 60.1058 23.6449C60.835 23.9574 61.7015 24.1136 62.7053 24.1136C63.5481 24.1136 64.2536 24.0095 64.8218 23.8011C65.3899 23.5928 65.8208 23.304 66.1144 22.9347C66.4079 22.5653 66.5594 22.1439 66.5689 21.6705C66.5594 21.2254 66.4127 20.8371 66.1286 20.5057C65.854 20.1648 65.3994 19.8617 64.7649 19.5966C64.1305 19.322 63.2735 19.0663 62.1939 18.8295L59.2962 18.2045C56.7204 17.6458 54.6892 16.7131 53.2024 15.4062C51.7252 14.09 50.9913 12.2955 51.0007 10.0227C50.9913 8.17614 51.4837 6.56155 52.478 5.17898C53.4818 3.78693 54.8691 2.70265 56.6399 1.92614C58.4202 1.14962 60.461 0.761363 62.7621 0.761363C65.1106 0.761363 67.1418 1.15436 68.8558 1.94034C70.5699 2.72633 71.8909 3.83428 72.8189 5.2642C73.7564 6.68466 74.2299 8.34659 74.2394 10.25H66.6826ZM93.1669 30.25H84.6442L94.2465 1.15909H105.042L114.644 30.25H106.121L99.7578 9.17045H99.5306L93.1669 30.25ZM91.576 18.7727H107.599V24.6818H91.576V18.7727ZM117.446 30.25V1.15909H125.344V23.8864H137.105V30.25H117.446ZM140.298 30.25V1.15909H148.195V23.8864H159.957V30.25H140.298ZM9.18255 87.25H0.659823L10.2621 58.1591H21.0576L30.6598 87.25H22.1371L15.7735 66.1705H15.5462L9.18255 87.25ZM7.59164 75.7727H23.6144V81.6818H7.59164V75.7727ZM33.4617 87.25V58.1591H46.0753C48.2912 58.1591 50.152 58.4574 51.6577 59.054C53.1728 59.6506 54.3139 60.4934 55.081 61.5824C55.8575 62.6714 56.2458 63.9545 56.2458 65.4318C56.2458 66.5019 56.009 67.4773 55.5355 68.358C55.0715 69.2386 54.4181 69.9773 53.5753 70.5739C52.7325 71.161 51.7477 71.5682 50.6208 71.7955V72.0795C51.8708 72.1269 53.0071 72.4441 54.0299 73.0312C55.0526 73.6089 55.867 74.4091 56.473 75.4318C57.0791 76.4451 57.3821 77.6383 57.3821 79.0114C57.3821 80.6023 56.9655 82.018 56.1321 83.2585C55.3083 84.4991 54.134 85.4744 52.6094 86.1847C51.0848 86.8949 49.2666 87.25 47.1549 87.25H33.4617ZM41.3594 80.9432H45.0526C46.3783 80.9432 47.3727 80.697 48.0355 80.2045C48.6984 79.7027 49.0299 78.964 49.0299 77.9886C49.0299 77.3068 48.8736 76.7292 48.5611 76.2557C48.2486 75.7822 47.8035 75.4223 47.2259 75.1761C46.6577 74.9299 45.9711 74.8068 45.1662 74.8068H41.3594V80.9432ZM41.3594 69.9205H44.598C45.2893 69.9205 45.9001 69.8116 46.4304 69.5938C46.9607 69.3759 47.3727 69.0634 47.6662 68.6562C47.9692 68.2396 48.1208 67.733 48.1208 67.1364C48.1208 66.2367 47.7988 65.5502 47.1549 65.0767C46.5109 64.5938 45.6965 64.3523 44.7117 64.3523H41.3594V69.9205ZM88.3622 72.7045C88.3622 75.9432 87.7325 78.6752 86.473 80.9006C85.2136 83.1165 83.5138 84.7973 81.3736 85.9432C79.2335 87.0795 76.8471 87.6477 74.2145 87.6477C71.563 87.6477 69.1672 87.0748 67.027 85.929C64.8963 84.7737 63.2013 83.0881 61.9418 80.8722C60.6918 78.6468 60.0668 75.9242 60.0668 72.7045C60.0668 69.4659 60.6918 66.7386 61.9418 64.5227C63.2013 62.2973 64.8963 60.6165 67.027 59.4801C69.1672 58.3343 71.563 57.7614 74.2145 57.7614C76.8471 57.7614 79.2335 58.3343 81.3736 59.4801C83.5138 60.6165 85.2136 62.2973 86.473 64.5227C87.7325 66.7386 88.3622 69.4659 88.3622 72.7045ZM80.2372 72.7045C80.2372 70.9621 80.0052 69.4943 79.5412 68.3011C79.0867 67.0985 78.4096 66.1894 77.51 65.5739C76.6198 64.9489 75.5213 64.6364 74.2145 64.6364C72.9077 64.6364 71.8045 64.9489 70.9049 65.5739C70.0147 66.1894 69.3376 67.0985 68.8736 68.3011C68.4191 69.4943 68.1918 70.9621 68.1918 72.7045C68.1918 74.447 68.4191 75.9195 68.8736 77.1222C69.3376 78.3153 70.0147 79.2244 70.9049 79.8494C71.8045 80.465 72.9077 80.7727 74.2145 80.7727C75.5213 80.7727 76.6198 80.465 77.51 79.8494C78.4096 79.2244 79.0867 78.3153 79.5412 77.1222C80.0052 75.9195 80.2372 74.447 80.2372 72.7045ZM109.232 58.1591H117.13V76.7955C117.13 79.0114 116.6 80.929 115.539 82.5483C114.488 84.1581 113.02 85.4034 111.136 86.2841C109.251 87.1553 107.064 87.5909 104.573 87.5909C102.064 87.5909 99.8667 87.1553 97.9823 86.2841C96.0978 85.4034 94.63 84.1581 93.5789 82.5483C92.5372 80.929 92.0164 79.0114 92.0164 76.7955V58.1591H99.9141V76.1136C99.9141 77.0133 100.113 77.8182 100.511 78.5284C100.908 79.2292 101.458 79.7784 102.158 80.1761C102.869 80.5739 103.674 80.7727 104.573 80.7727C105.482 80.7727 106.287 80.5739 106.988 80.1761C107.689 79.7784 108.238 79.2292 108.636 78.5284C109.033 77.8182 109.232 77.0133 109.232 76.1136V58.1591ZM120.088 64.5227V58.1591H145.372V64.5227H136.622V87.25H128.838V64.5227H120.088ZM9.0121 258.25L0.432551 229.159H9.23937L13.2166 247.057H13.4439L18.1598 229.159H25.0916L29.8076 247.114H30.0348L34.0121 229.159H42.8189L34.2394 258.25H26.6826L21.7394 242H21.5121L16.5689 258.25H9.0121ZM71.7216 243.705C71.7216 246.943 71.0919 249.675 69.8324 251.901C68.5729 254.116 66.8731 255.797 64.733 256.943C62.5928 258.08 60.2065 258.648 57.5739 258.648C54.9224 258.648 52.5265 258.075 50.3864 256.929C48.2557 255.774 46.5606 254.088 45.3012 251.872C44.0512 249.647 43.4262 246.924 43.4262 243.705C43.4262 240.466 44.0512 237.739 45.3012 235.523C46.5606 233.297 48.2557 231.616 50.3864 230.48C52.5265 229.334 54.9224 228.761 57.5739 228.761C60.2065 228.761 62.5928 229.334 64.733 230.48C66.8731 231.616 68.5729 233.297 69.8324 235.523C71.0919 237.739 71.7216 240.466 71.7216 243.705ZM63.5966 243.705C63.5966 241.962 63.3646 240.494 62.9006 239.301C62.446 238.098 61.769 237.189 60.8693 236.574C59.9792 235.949 58.8807 235.636 57.5739 235.636C56.2671 235.636 55.1638 235.949 54.2642 236.574C53.3741 237.189 52.697 238.098 52.233 239.301C51.7784 240.494 51.5512 241.962 51.5512 243.705C51.5512 245.447 51.7784 246.92 52.233 248.122C52.697 249.315 53.3741 250.224 54.2642 250.849C55.1638 251.465 56.2671 251.773 57.5739 251.773C58.8807 251.773 59.9792 251.465 60.8693 250.849C61.769 250.224 62.446 249.315 62.9006 248.122C63.3646 246.92 63.5966 245.447 63.5966 243.705ZM75.3757 258.25V229.159H87.9326C90.0916 229.159 91.9808 229.552 93.6002 230.338C95.2195 231.124 96.479 232.256 97.3786 233.733C98.2782 235.21 98.728 236.981 98.728 239.045C98.728 241.129 98.264 242.885 97.336 244.315C96.4174 245.745 95.1248 246.825 93.4581 247.554C91.8009 248.283 89.8644 248.648 87.6485 248.648H80.1485V242.511H86.0576C86.9856 242.511 87.7763 242.398 88.4297 242.17C89.0926 241.934 89.5992 241.56 89.9496 241.048C90.3094 240.537 90.4894 239.869 90.4894 239.045C90.4894 238.212 90.3094 237.535 89.9496 237.014C89.5992 236.484 89.0926 236.096 88.4297 235.849C87.7763 235.594 86.9856 235.466 86.0576 235.466H83.2735V258.25H75.3757ZM92.4212 244.898L99.6939 258.25H91.1144L84.0121 244.898H92.4212ZM113.288 258.25H102.094V229.159H113.174C116.166 229.159 118.752 229.741 120.93 230.906C123.117 232.062 124.803 233.728 125.987 235.906C127.18 238.075 127.776 240.674 127.776 243.705C127.776 246.735 127.184 249.339 126.001 251.517C124.817 253.686 123.141 255.352 120.972 256.517C118.804 257.672 116.242 258.25 113.288 258.25ZM109.992 251.545H113.004C114.443 251.545 115.669 251.313 116.683 250.849C117.705 250.385 118.482 249.585 119.012 248.449C119.552 247.312 119.822 245.731 119.822 243.705C119.822 241.678 119.547 240.097 118.998 238.96C118.458 237.824 117.663 237.024 116.612 236.56C115.57 236.096 114.291 235.864 112.776 235.864H109.992V251.545ZM147.112 238.25C147.036 237.303 146.681 236.564 146.047 236.034C145.422 235.504 144.47 235.239 143.192 235.239C142.377 235.239 141.71 235.338 141.189 235.537C140.678 235.726 140.299 235.987 140.053 236.318C139.806 236.65 139.679 237.028 139.669 237.455C139.65 237.805 139.712 238.122 139.854 238.406C140.005 238.681 140.242 238.932 140.564 239.159C140.886 239.377 141.298 239.576 141.8 239.756C142.302 239.936 142.898 240.097 143.59 240.239L145.976 240.75C147.586 241.091 148.964 241.541 150.109 242.099C151.255 242.658 152.193 243.316 152.922 244.074C153.651 244.822 154.186 245.665 154.527 246.602C154.877 247.54 155.057 248.562 155.067 249.67C155.057 251.583 154.579 253.203 153.632 254.528C152.685 255.854 151.331 256.863 149.57 257.554C147.818 258.245 145.711 258.591 143.249 258.591C140.72 258.591 138.514 258.217 136.629 257.469C134.754 256.721 133.296 255.57 132.254 254.017C131.222 252.455 130.701 250.456 130.692 248.023H138.192C138.239 248.913 138.462 249.661 138.859 250.267C139.257 250.873 139.816 251.332 140.536 251.645C141.265 251.957 142.131 252.114 143.135 252.114C143.978 252.114 144.683 252.009 145.251 251.801C145.82 251.593 146.25 251.304 146.544 250.935C146.838 250.565 146.989 250.144 146.999 249.67C146.989 249.225 146.842 248.837 146.558 248.506C146.284 248.165 145.829 247.862 145.195 247.597C144.56 247.322 143.703 247.066 142.624 246.83L139.726 246.205C137.15 245.646 135.119 244.713 133.632 243.406C132.155 242.09 131.421 240.295 131.43 238.023C131.421 236.176 131.913 234.562 132.908 233.179C133.911 231.787 135.299 230.703 137.07 229.926C138.85 229.15 140.891 228.761 143.192 228.761C145.54 228.761 147.572 229.154 149.286 229.94C151 230.726 152.321 231.834 153.249 233.264C154.186 234.685 154.66 236.347 154.669 238.25H147.112Z"/>
<path d="M2.00073 144.25V109.341H11.478V122.977H24.0235V109.341H33.5007V144.25H24.0235V130.614H11.478V144.25H2.00073ZM58.6598 109.341H68.1371V131.705C68.1371 134.364 67.5007 136.665 66.228 138.608C64.9666 140.54 63.2053 142.034 60.9439 143.091C58.6826 144.136 56.0576 144.659 53.0689 144.659C50.0576 144.659 47.4212 144.136 45.1598 143.091C42.8985 142.034 41.1371 140.54 39.8757 138.608C38.6257 136.665 38.0007 134.364 38.0007 131.705V109.341H47.478V130.886C47.478 131.966 47.7166 132.932 48.1939 133.784C48.6712 134.625 49.3303 135.284 50.1712 135.761C51.0235 136.239 51.9894 136.477 53.0689 136.477C54.1598 136.477 55.1257 136.239 55.9666 135.761C56.8076 135.284 57.4666 134.625 57.9439 133.784C58.4212 132.932 58.6598 131.966 58.6598 130.886V109.341ZM102.846 109.341V144.25H94.9368L82.3232 125.909H82.1186V144.25H72.6414V109.341H80.6868L93.0959 127.614H93.3686V109.341H102.846ZM106.374 116.977V109.341H136.715V116.977H126.215V144.25H116.874V116.977H106.374ZM149.759 109.341V144.25H140.282V109.341H149.759ZM184.455 109.341V144.25H176.546L163.933 125.909H163.728V144.25H154.251V109.341H162.296L174.705 127.614H174.978V109.341H184.455ZM211.609 120.864C211.461 120.261 211.228 119.733 210.91 119.278C210.592 118.812 210.194 118.42 209.717 118.102C209.251 117.773 208.705 117.528 208.08 117.369C207.467 117.199 206.791 117.114 206.052 117.114C204.461 117.114 203.103 117.494 201.978 118.256C200.864 119.017 200.012 120.114 199.421 121.545C198.842 122.977 198.552 124.705 198.552 126.727C198.552 128.773 198.83 130.523 199.387 131.977C199.944 133.432 200.773 134.545 201.876 135.318C202.978 136.091 204.347 136.477 205.984 136.477C207.427 136.477 208.626 136.267 209.58 135.847C210.546 135.426 211.268 134.83 211.745 134.057C212.222 133.284 212.461 132.375 212.461 131.33L214.097 131.5H206.12V124.75H221.597V129.591C221.597 132.773 220.921 135.494 219.569 137.756C218.228 140.006 216.376 141.733 214.012 142.938C211.66 144.131 208.961 144.727 205.916 144.727C202.518 144.727 199.535 144.006 196.967 142.562C194.398 141.119 192.393 139.062 190.95 136.392C189.518 133.722 188.802 130.545 188.802 126.864C188.802 123.977 189.239 121.42 190.114 119.193C191.001 116.966 192.228 115.085 193.796 113.551C195.364 112.006 197.177 110.841 199.234 110.057C201.291 109.261 203.495 108.864 205.847 108.864C207.916 108.864 209.836 109.159 211.609 109.75C213.393 110.33 214.967 111.159 216.33 112.239C217.705 113.307 218.813 114.574 219.654 116.04C220.495 117.506 221.006 119.114 221.188 120.864H211.609ZM1.04619 173.977V166.341H31.3871V173.977H20.8871V201.25H11.5462V173.977H1.04619ZM34.9539 201.25V166.341H44.4311V179.977H56.9766V166.341H66.4539V201.25H56.9766V187.614H44.4311V201.25H34.9539ZM70.9539 201.25V166.341H96.1129V173.977H80.4311V179.977H94.8175V187.614H80.4311V193.614H96.0448V201.25H70.9539ZM110.376 201.25V166.341H125.444C128.035 166.341 130.302 166.812 132.245 167.756C134.188 168.699 135.7 170.057 136.779 171.83C137.859 173.602 138.398 175.727 138.398 178.205C138.398 180.705 137.842 182.812 136.728 184.528C135.626 186.244 134.075 187.54 132.075 188.415C130.086 189.29 127.762 189.727 125.103 189.727H116.103V182.364H123.194C124.308 182.364 125.256 182.227 126.041 181.955C126.836 181.67 127.444 181.222 127.864 180.608C128.296 179.994 128.512 179.193 128.512 178.205C128.512 177.205 128.296 176.392 127.864 175.767C127.444 175.131 126.836 174.665 126.041 174.369C125.256 174.062 124.308 173.909 123.194 173.909H119.853V201.25H110.376ZM130.83 185.227L139.558 201.25H129.262L120.739 185.227H130.83ZM151.916 166.341V201.25H142.438V166.341H151.916ZM179.077 177.864C178.93 177.261 178.697 176.733 178.379 176.278C178.06 175.812 177.663 175.42 177.185 175.102C176.719 174.773 176.174 174.528 175.549 174.369C174.935 174.199 174.259 174.114 173.521 174.114C171.93 174.114 170.572 174.494 169.447 175.256C168.333 176.017 167.481 177.114 166.89 178.545C166.31 179.977 166.021 181.705 166.021 183.727C166.021 185.773 166.299 187.523 166.856 188.977C167.413 190.432 168.242 191.545 169.344 192.318C170.447 193.091 171.816 193.477 173.452 193.477C174.896 193.477 176.094 193.267 177.049 192.847C178.015 192.426 178.737 191.83 179.214 191.057C179.691 190.284 179.93 189.375 179.93 188.33L181.566 188.5H173.589V181.75H189.066V186.591C189.066 189.773 188.39 192.494 187.038 194.756C185.697 197.006 183.844 198.733 181.481 199.938C179.129 201.131 176.43 201.727 173.384 201.727C169.987 201.727 167.004 201.006 164.435 199.562C161.867 198.119 159.862 196.062 158.418 193.392C156.987 190.722 156.271 187.545 156.271 183.864C156.271 180.977 156.708 178.42 157.583 176.193C158.469 173.966 159.697 172.085 161.265 170.551C162.833 169.006 164.646 167.841 166.702 167.057C168.759 166.261 170.964 165.864 173.316 165.864C175.384 165.864 177.305 166.159 179.077 166.75C180.862 167.33 182.435 168.159 183.799 169.239C185.174 170.307 186.282 171.574 187.123 173.04C187.964 174.506 188.475 176.114 188.657 177.864H179.077ZM193.485 201.25V166.341H202.962V179.977H215.508V166.341H224.985V201.25H215.508V187.614H202.962V201.25H193.485ZM228.531 173.977V166.341H258.871V173.977H248.371V201.25H239.031V173.977H228.531Z"/>
</mask>
<path d="M9.52346 1.15909V30.25H1.62573V1.15909H9.52346ZM12.4709 7.52273V1.15909H37.755V7.52273H29.005V30.25H21.2209V7.52273H12.4709ZM47.3182 1.15909V4.56818C47.3182 5.49621 47.1288 6.42424 46.75 7.35227C46.3807 8.27083 45.9072 9.12784 45.3296 9.9233C44.7614 10.7093 44.1743 11.3674 43.5682 11.8977L40.3296 10.25C40.7273 9.56818 41.0824 8.77746 41.3949 7.87784C41.7074 6.97822 41.8637 5.875 41.8637 4.56818V1.15909H47.3182ZM66.6826 10.25C66.6068 9.30303 66.2517 8.56439 65.6172 8.03409C64.9922 7.50379 64.0405 7.23864 62.7621 7.23864C61.9477 7.23864 61.2801 7.33807 60.7593 7.53693C60.2479 7.72633 59.8691 7.98674 59.6229 8.31818C59.3767 8.64962 59.2488 9.02841 59.2394 9.45455C59.2204 9.80492 59.282 10.1222 59.424 10.4062C59.5755 10.6809 59.8123 10.9318 60.1343 11.1591C60.4562 11.3769 60.8682 11.5758 61.3701 11.7557C61.8719 11.9356 62.4685 12.0966 63.1598 12.2386L65.5462 12.75C67.156 13.0909 68.5339 13.5407 69.6797 14.0994C70.8255 14.6581 71.763 15.3163 72.4922 16.0739C73.2214 16.822 73.7564 17.6648 74.0973 18.6023C74.4477 19.5398 74.6276 20.5625 74.6371 21.6705C74.6276 23.5833 74.1494 25.2027 73.2024 26.5284C72.2555 27.8542 70.9013 28.8627 69.1399 29.554C67.388 30.2453 65.281 30.5909 62.8189 30.5909C60.2905 30.5909 58.0841 30.2169 56.1996 29.4688C54.3246 28.7206 52.8663 27.5701 51.8246 26.017C50.7924 24.4545 50.2716 22.4564 50.2621 20.0227H57.7621C57.8094 20.9129 58.032 21.661 58.4297 22.267C58.8274 22.8731 59.3861 23.3324 60.1058 23.6449C60.835 23.9574 61.7015 24.1136 62.7053 24.1136C63.5481 24.1136 64.2536 24.0095 64.8218 23.8011C65.3899 23.5928 65.8208 23.304 66.1144 22.9347C66.4079 22.5653 66.5594 22.1439 66.5689 21.6705C66.5594 21.2254 66.4127 20.8371 66.1286 20.5057C65.854 20.1648 65.3994 19.8617 64.7649 19.5966C64.1305 19.322 63.2735 19.0663 62.1939 18.8295L59.2962 18.2045C56.7204 17.6458 54.6892 16.7131 53.2024 15.4062C51.7252 14.09 50.9913 12.2955 51.0007 10.0227C50.9913 8.17614 51.4837 6.56155 52.478 5.17898C53.4818 3.78693 54.8691 2.70265 56.6399 1.92614C58.4202 1.14962 60.461 0.761363 62.7621 0.761363C65.1106 0.761363 67.1418 1.15436 68.8558 1.94034C70.5699 2.72633 71.8909 3.83428 72.8189 5.2642C73.7564 6.68466 74.2299 8.34659 74.2394 10.25H66.6826ZM93.1669 30.25H84.6442L94.2465 1.15909H105.042L114.644 30.25H106.121L99.7578 9.17045H99.5306L93.1669 30.25ZM91.576 18.7727H107.599V24.6818H91.576V18.7727ZM117.446 30.25V1.15909H125.344V23.8864H137.105V30.25H117.446ZM140.298 30.25V1.15909H148.195V23.8864H159.957V30.25H140.298ZM9.18255 87.25H0.659823L10.2621 58.1591H21.0576L30.6598 87.25H22.1371L15.7735 66.1705H15.5462L9.18255 87.25ZM7.59164 75.7727H23.6144V81.6818H7.59164V75.7727ZM33.4617 87.25V58.1591H46.0753C48.2912 58.1591 50.152 58.4574 51.6577 59.054C53.1728 59.6506 54.3139 60.4934 55.081 61.5824C55.8575 62.6714 56.2458 63.9545 56.2458 65.4318C56.2458 66.5019 56.009 67.4773 55.5355 68.358C55.0715 69.2386 54.4181 69.9773 53.5753 70.5739C52.7325 71.161 51.7477 71.5682 50.6208 71.7955V72.0795C51.8708 72.1269 53.0071 72.4441 54.0299 73.0312C55.0526 73.6089 55.867 74.4091 56.473 75.4318C57.0791 76.4451 57.3821 77.6383 57.3821 79.0114C57.3821 80.6023 56.9655 82.018 56.1321 83.2585C55.3083 84.4991 54.134 85.4744 52.6094 86.1847C51.0848 86.8949 49.2666 87.25 47.1549 87.25H33.4617ZM41.3594 80.9432H45.0526C46.3783 80.9432 47.3727 80.697 48.0355 80.2045C48.6984 79.7027 49.0299 78.964 49.0299 77.9886C49.0299 77.3068 48.8736 76.7292 48.5611 76.2557C48.2486 75.7822 47.8035 75.4223 47.2259 75.1761C46.6577 74.9299 45.9711 74.8068 45.1662 74.8068H41.3594V80.9432ZM41.3594 69.9205H44.598C45.2893 69.9205 45.9001 69.8116 46.4304 69.5938C46.9607 69.3759 47.3727 69.0634 47.6662 68.6562C47.9692 68.2396 48.1208 67.733 48.1208 67.1364C48.1208 66.2367 47.7988 65.5502 47.1549 65.0767C46.5109 64.5938 45.6965 64.3523 44.7117 64.3523H41.3594V69.9205ZM88.3622 72.7045C88.3622 75.9432 87.7325 78.6752 86.473 80.9006C85.2136 83.1165 83.5138 84.7973 81.3736 85.9432C79.2335 87.0795 76.8471 87.6477 74.2145 87.6477C71.563 87.6477 69.1672 87.0748 67.027 85.929C64.8963 84.7737 63.2013 83.0881 61.9418 80.8722C60.6918 78.6468 60.0668 75.9242 60.0668 72.7045C60.0668 69.4659 60.6918 66.7386 61.9418 64.5227C63.2013 62.2973 64.8963 60.6165 67.027 59.4801C69.1672 58.3343 71.563 57.7614 74.2145 57.7614C76.8471 57.7614 79.2335 58.3343 81.3736 59.4801C83.5138 60.6165 85.2136 62.2973 86.473 64.5227C87.7325 66.7386 88.3622 69.4659 88.3622 72.7045ZM80.2372 72.7045C80.2372 70.9621 80.0052 69.4943 79.5412 68.3011C79.0867 67.0985 78.4096 66.1894 77.51 65.5739C76.6198 64.9489 75.5213 64.6364 74.2145 64.6364C72.9077 64.6364 71.8045 64.9489 70.9049 65.5739C70.0147 66.1894 69.3376 67.0985 68.8736 68.3011C68.4191 69.4943 68.1918 70.9621 68.1918 72.7045C68.1918 74.447 68.4191 75.9195 68.8736 77.1222C69.3376 78.3153 70.0147 79.2244 70.9049 79.8494C71.8045 80.465 72.9077 80.7727 74.2145 80.7727C75.5213 80.7727 76.6198 80.465 77.51 79.8494C78.4096 79.2244 79.0867 78.3153 79.5412 77.1222C80.0052 75.9195 80.2372 74.447 80.2372 72.7045ZM109.232 58.1591H117.13V76.7955C117.13 79.0114 116.6 80.929 115.539 82.5483C114.488 84.1581 113.02 85.4034 111.136 86.2841C109.251 87.1553 107.064 87.5909 104.573 87.5909C102.064 87.5909 99.8667 87.1553 97.9823 86.2841C96.0978 85.4034 94.63 84.1581 93.5789 82.5483C92.5372 80.929 92.0164 79.0114 92.0164 76.7955V58.1591H99.9141V76.1136C99.9141 77.0133 100.113 77.8182 100.511 78.5284C100.908 79.2292 101.458 79.7784 102.158 80.1761C102.869 80.5739 103.674 80.7727 104.573 80.7727C105.482 80.7727 106.287 80.5739 106.988 80.1761C107.689 79.7784 108.238 79.2292 108.636 78.5284C109.033 77.8182 109.232 77.0133 109.232 76.1136V58.1591ZM120.088 64.5227V58.1591H145.372V64.5227H136.622V87.25H128.838V64.5227H120.088ZM9.0121 258.25L0.432551 229.159H9.23937L13.2166 247.057H13.4439L18.1598 229.159H25.0916L29.8076 247.114H30.0348L34.0121 229.159H42.8189L34.2394 258.25H26.6826L21.7394 242H21.5121L16.5689 258.25H9.0121ZM71.7216 243.705C71.7216 246.943 71.0919 249.675 69.8324 251.901C68.5729 254.116 66.8731 255.797 64.733 256.943C62.5928 258.08 60.2065 258.648 57.5739 258.648C54.9224 258.648 52.5265 258.075 50.3864 256.929C48.2557 255.774 46.5606 254.088 45.3012 251.872C44.0512 249.647 43.4262 246.924 43.4262 243.705C43.4262 240.466 44.0512 237.739 45.3012 235.523C46.5606 233.297 48.2557 231.616 50.3864 230.48C52.5265 229.334 54.9224 228.761 57.5739 228.761C60.2065 228.761 62.5928 229.334 64.733 230.48C66.8731 231.616 68.5729 233.297 69.8324 235.523C71.0919 237.739 71.7216 240.466 71.7216 243.705ZM63.5966 243.705C63.5966 241.962 63.3646 240.494 62.9006 239.301C62.446 238.098 61.769 237.189 60.8693 236.574C59.9792 235.949 58.8807 235.636 57.5739 235.636C56.2671 235.636 55.1638 235.949 54.2642 236.574C53.3741 237.189 52.697 238.098 52.233 239.301C51.7784 240.494 51.5512 241.962 51.5512 243.705C51.5512 245.447 51.7784 246.92 52.233 248.122C52.697 249.315 53.3741 250.224 54.2642 250.849C55.1638 251.465 56.2671 251.773 57.5739 251.773C58.8807 251.773 59.9792 251.465 60.8693 250.849C61.769 250.224 62.446 249.315 62.9006 248.122C63.3646 246.92 63.5966 245.447 63.5966 243.705ZM75.3757 258.25V229.159H87.9326C90.0916 229.159 91.9808 229.552 93.6002 230.338C95.2195 231.124 96.479 232.256 97.3786 233.733C98.2782 235.21 98.728 236.981 98.728 239.045C98.728 241.129 98.264 242.885 97.336 244.315C96.4174 245.745 95.1248 246.825 93.4581 247.554C91.8009 248.283 89.8644 248.648 87.6485 248.648H80.1485V242.511H86.0576C86.9856 242.511 87.7763 242.398 88.4297 242.17C89.0926 241.934 89.5992 241.56 89.9496 241.048C90.3094 240.537 90.4894 239.869 90.4894 239.045C90.4894 238.212 90.3094 237.535 89.9496 237.014C89.5992 236.484 89.0926 236.096 88.4297 235.849C87.7763 235.594 86.9856 235.466 86.0576 235.466H83.2735V258.25H75.3757ZM92.4212 244.898L99.6939 258.25H91.1144L84.0121 244.898H92.4212ZM113.288 258.25H102.094V229.159H113.174C116.166 229.159 118.752 229.741 120.93 230.906C123.117 232.062 124.803 233.728 125.987 235.906C127.18 238.075 127.776 240.674 127.776 243.705C127.776 246.735 127.184 249.339 126.001 251.517C124.817 253.686 123.141 255.352 120.972 256.517C118.804 257.672 116.242 258.25 113.288 258.25ZM109.992 251.545H113.004C114.443 251.545 115.669 251.313 116.683 250.849C117.705 250.385 118.482 249.585 119.012 248.449C119.552 247.312 119.822 245.731 119.822 243.705C119.822 241.678 119.547 240.097 118.998 238.96C118.458 237.824 117.663 237.024 116.612 236.56C115.57 236.096 114.291 235.864 112.776 235.864H109.992V251.545ZM147.112 238.25C147.036 237.303 146.681 236.564 146.047 236.034C145.422 235.504 144.47 235.239 143.192 235.239C142.377 235.239 141.71 235.338 141.189 235.537C140.678 235.726 140.299 235.987 140.053 236.318C139.806 236.65 139.679 237.028 139.669 237.455C139.65 237.805 139.712 238.122 139.854 238.406C140.005 238.681 140.242 238.932 140.564 239.159C140.886 239.377 141.298 239.576 141.8 239.756C142.302 239.936 142.898 240.097 143.59 240.239L145.976 240.75C147.586 241.091 148.964 241.541 150.109 242.099C151.255 242.658 152.193 243.316 152.922 244.074C153.651 244.822 154.186 245.665 154.527 246.602C154.877 247.54 155.057 248.562 155.067 249.67C155.057 251.583 154.579 253.203 153.632 254.528C152.685 255.854 151.331 256.863 149.57 257.554C147.818 258.245 145.711 258.591 143.249 258.591C140.72 258.591 138.514 258.217 136.629 257.469C134.754 256.721 133.296 255.57 132.254 254.017C131.222 252.455 130.701 250.456 130.692 248.023H138.192C138.239 248.913 138.462 249.661 138.859 250.267C139.257 250.873 139.816 251.332 140.536 251.645C141.265 251.957 142.131 252.114 143.135 252.114C143.978 252.114 144.683 252.009 145.251 251.801C145.82 251.593 146.25 251.304 146.544 250.935C146.838 250.565 146.989 250.144 146.999 249.67C146.989 249.225 146.842 248.837 146.558 248.506C146.284 248.165 145.829 247.862 145.195 247.597C144.56 247.322 143.703 247.066 142.624 246.83L139.726 246.205C137.15 245.646 135.119 244.713 133.632 243.406C132.155 242.09 131.421 240.295 131.43 238.023C131.421 236.176 131.913 234.562 132.908 233.179C133.911 231.787 135.299 230.703 137.07 229.926C138.85 229.15 140.891 228.761 143.192 228.761C145.54 228.761 147.572 229.154 149.286 229.94C151 230.726 152.321 231.834 153.249 233.264C154.186 234.685 154.66 236.347 154.669 238.25H147.112Z" fill="black"/>
<path d="M9.52346 1.15909H10.5235V0.15909H9.52346V1.15909ZM9.52346 30.25V31.25H10.5235V30.25H9.52346ZM1.62573 30.25H0.625732V31.25H1.62573V30.25ZM1.62573 1.15909V0.15909H0.625732V1.15909H1.62573ZM8.52346 1.15909V30.25H10.5235V1.15909H8.52346ZM9.52346 29.25H1.62573V31.25H9.52346V29.25ZM2.62573 30.25V1.15909H0.625732V30.25H2.62573ZM1.62573 2.15909H9.52346V0.15909H1.62573V2.15909ZM12.4709 7.52273H11.4709V8.52273H12.4709V7.52273ZM12.4709 1.15909V0.15909H11.4709V1.15909H12.4709ZM37.755 1.15909H38.755V0.15909H37.755V1.15909ZM37.755 7.52273V8.52273H38.755V7.52273H37.755ZM29.005 7.52273V6.52273H28.005V7.52273H29.005ZM29.005 30.25V31.25H30.005V30.25H29.005ZM21.2209 30.25H20.2209V31.25H21.2209V30.25ZM21.2209 7.52273H22.2209V6.52273H21.2209V7.52273ZM13.4709 7.52273V1.15909H11.4709V7.52273H13.4709ZM12.4709 2.15909H37.755V0.15909H12.4709V2.15909ZM36.755 1.15909V7.52273H38.755V1.15909H36.755ZM37.755 6.52273H29.005V8.52273H37.755V6.52273ZM28.005 7.52273V30.25H30.005V7.52273H28.005ZM29.005 29.25H21.2209V31.25H29.005V29.25ZM22.2209 30.25V7.52273H20.2209V30.25H22.2209ZM21.2209 6.52273H12.4709V8.52273H21.2209V6.52273ZM47.3182 1.15909H48.3182V0.15909H47.3182V1.15909ZM46.75 7.35227L45.8242 6.97437L45.8222 6.97923L46.75 7.35227ZM45.3296 9.92329L44.5204 9.3357L44.5191 9.33745L45.3296 9.92329ZM43.5682 11.8977L43.1147 12.789L43.7176 13.0957L44.2267 12.6503L43.5682 11.8977ZM40.3296 10.25L39.4658 9.74613L38.9321 10.661L39.8761 11.1413L40.3296 10.25ZM41.8637 1.15909V0.15909H40.8637V1.15909H41.8637ZM46.3182 1.15909V4.56818H48.3182V1.15909H46.3182ZM46.3182 4.56818C46.3182 5.35656 46.1579 6.15663 45.8242 6.97437L47.6759 7.73017C48.0997 6.69185 48.3182 5.63586 48.3182 4.56818H46.3182ZM45.8222 6.97923C45.4833 7.82222 45.0495 8.6071 44.5204 9.3357L46.1387 10.5109C46.7649 9.64858 47.2781 8.71944 47.6778 7.72531L45.8222 6.97923ZM44.5191 9.33745C43.9865 10.0743 43.4489 10.6734 42.9097 11.1451L44.2267 12.6503C44.8997 12.0615 45.5363 11.3443 46.14 10.5091L44.5191 9.33745ZM44.0217 11.0064L40.783 9.35872L39.8761 11.1413L43.1147 12.789L44.0217 11.0064ZM41.1933 10.7539C41.6295 10.0062 42.01 9.1546 42.3395 8.20597L40.4503 7.54971C40.1548 8.40032 39.8251 9.13017 39.4658 9.74613L41.1933 10.7539ZM42.3395 8.20597C42.6995 7.16968 42.8637 5.94811 42.8637 4.56818H40.8637C40.8637 5.80189 40.7153 6.78675 40.4503 7.54971L42.3395 8.20597ZM42.8637 4.56818V1.15909H40.8637V4.56818H42.8637ZM41.8637 2.15909H47.3182V0.15909H41.8637V2.15909ZM66.6825 10.25L65.6857 10.3297L65.7594 11.25H66.6825V10.25ZM65.6172 8.03409L64.9702 8.79662L64.9759 8.80137L65.6172 8.03409ZM60.7593 7.53693L61.1066 8.47473L61.116 8.47115L60.7593 7.53693ZM59.6229 8.31818L58.8201 7.72186V7.72186L59.6229 8.31818ZM59.2394 9.45454L60.2379 9.50852L60.2388 9.49265L60.2391 9.47676L59.2394 9.45454ZM59.424 10.4062L58.5296 10.8535L58.5387 10.8716L58.5485 10.8893L59.424 10.4062ZM60.1343 11.1591L59.5576 11.9761L59.5657 11.9818L59.5739 11.9874L60.1343 11.1591ZM63.1598 12.2386L63.3694 11.2608L63.3611 11.2591L63.1598 12.2386ZM65.5462 12.75L65.3367 13.7278L65.339 13.7283L65.5462 12.75ZM69.6797 14.0994L69.2414 14.9983L69.6797 14.0994ZM72.4922 16.0739L71.7717 16.7673L71.7761 16.7718L72.4922 16.0739ZM74.0973 18.6023L73.1575 18.944L73.1606 18.9524L74.0973 18.6023ZM74.6371 21.6705L75.6372 21.6754L75.6371 21.6619L74.6371 21.6705ZM73.2024 26.5284L74.0162 27.1096L73.2024 26.5284ZM69.1399 29.554L68.7746 28.6231L68.7729 28.6238L69.1399 29.554ZM56.1996 29.4688L55.829 30.3976L55.8306 30.3982L56.1996 29.4688ZM51.8246 26.017L50.9902 26.5683L50.9941 26.5741L51.8246 26.017ZM50.2621 20.0227V19.0227H49.2582L49.2621 20.0266L50.2621 20.0227ZM57.7621 20.0227L58.7607 19.9696L58.7103 19.0227H57.7621V20.0227ZM58.4297 22.267L57.5937 22.8157L58.4297 22.267ZM60.1058 23.6449L59.7076 24.5622L59.7119 24.564L60.1058 23.6449ZM64.8218 23.8011L65.166 24.74L64.8218 23.8011ZM66.1144 22.9347L66.8972 23.5569L66.1144 22.9347ZM66.5689 21.6705L67.5687 21.6905L67.5691 21.6698L67.5687 21.6492L66.5689 21.6705ZM66.1286 20.5057L65.3498 21.133L65.3594 21.1449L65.3693 21.1565L66.1286 20.5057ZM64.7649 19.5966L64.3677 20.5144L64.3793 20.5193L64.7649 19.5966ZM62.1939 18.8295L62.4081 17.8528L62.4048 17.852L62.1939 18.8295ZM59.2962 18.2045L59.0842 19.1818L59.0854 19.1821L59.2962 18.2045ZM53.2024 15.4062L52.5372 16.1529L52.5422 16.1573L53.2024 15.4062ZM51.0007 10.0227L52.0008 10.0269L52.0007 10.0176L51.0007 10.0227ZM52.478 5.17898L51.6669 4.59409L51.6662 4.59511L52.478 5.17898ZM56.6399 1.92614L56.2401 1.00953L56.2383 1.01031L56.6399 1.92614ZM68.8558 1.94034L68.439 2.84933L68.8558 1.94034ZM72.8189 5.26421L71.9801 5.80862L71.9843 5.81505L72.8189 5.26421ZM74.2394 10.25V11.25H75.2444L75.2394 10.245L74.2394 10.25ZM67.6794 10.1703C67.5857 8.99902 67.1301 7.9953 66.2585 7.26681L64.9759 8.80137C65.3733 9.13349 65.6279 9.60704 65.6857 10.3297L67.6794 10.1703ZM66.2642 7.27158C65.3813 6.52246 64.1515 6.23864 62.7621 6.23864V8.23864C63.9296 8.23864 64.6031 8.48512 64.9702 8.7966L66.2642 7.27158ZM62.7621 6.23864C61.877 6.23864 61.0769 6.34523 60.4026 6.60271L61.116 8.47115C61.4833 8.3309 62.0184 8.23864 62.7621 8.23864V6.23864ZM60.4119 6.59918C59.7761 6.83469 59.2135 7.19229 58.8201 7.72186L60.4256 8.91451C60.5247 8.7812 60.7197 8.61796 61.1066 8.47468L60.4119 6.59918ZM58.8201 7.72186C58.4462 8.22528 58.2535 8.80618 58.2396 9.43233L60.2391 9.47676C60.2441 9.25064 60.3072 9.07396 60.4256 8.9145L58.8201 7.72186ZM58.2408 9.40057C58.2135 9.90562 58.302 10.3983 58.5296 10.8535L60.3185 9.95904C60.2619 9.84599 60.2273 9.70423 60.2379 9.50852L58.2408 9.40057ZM58.5485 10.8893C58.7893 11.3259 59.1429 11.6833 59.5576 11.9761L60.7109 10.3421C60.4817 10.1803 60.3617 10.0358 60.2996 9.92317L58.5485 10.8893ZM59.5739 11.9874C59.9854 12.2657 60.4789 12.4985 61.0326 12.697L61.7075 10.8143C61.2574 10.653 60.927 10.4881 60.6946 10.3308L59.5739 11.9874ZM61.0326 12.697C61.5905 12.897 62.2349 13.0695 62.9585 13.2182L63.3611 11.2591C62.7022 11.1237 62.1534 10.9742 61.7075 10.8143L61.0326 12.697ZM62.9503 13.2164L65.3367 13.7278L65.7557 11.7722L63.3694 11.2608L62.9503 13.2164ZM65.339 13.7283C66.8907 14.0569 68.1868 14.484 69.2414 14.9983L70.118 13.2006C68.881 12.5974 67.4214 12.1249 65.7534 11.7717L65.339 13.7283ZM69.2414 14.9983C70.3036 15.5162 71.1391 16.11 71.7717 16.7673L73.2127 15.3804C72.387 14.5225 71.3475 13.8001 70.118 13.2006L69.2414 14.9983ZM71.7761 16.7718C72.4111 17.4233 72.8674 18.1461 73.1575 18.944L75.0371 18.2605C74.6455 17.1835 74.0317 16.2206 73.2083 15.3759L71.7761 16.7718ZM73.1606 18.9524C73.466 19.7695 73.6286 20.6753 73.6371 21.679L75.6371 21.6619C75.6267 20.4497 75.4294 19.31 75.034 18.2522L73.1606 18.9524ZM73.6371 21.6655C73.6285 23.4087 73.1957 24.8174 72.3887 25.9472L74.0162 27.1096C75.1032 25.5879 75.6268 23.758 75.6371 21.6754L73.6371 21.6655ZM72.3887 25.9472C71.5714 27.0913 70.3855 27.9909 68.7746 28.6231L69.5053 30.4849C71.4171 29.7345 72.9395 28.617 74.0162 27.1096L72.3887 25.9472ZM68.7729 28.6238C67.1677 29.2572 65.192 29.5909 62.8189 29.5909V31.5909C65.37 31.5909 67.6084 31.2334 69.507 30.4842L68.7729 28.6238ZM62.8189 29.5909C60.3867 29.5909 58.3105 29.2309 56.5686 28.5393L55.8306 30.3982C57.8576 31.2029 60.1943 31.5909 62.8189 31.5909V29.5909ZM56.5702 28.54C54.8668 27.8603 53.5754 26.8321 52.6551 25.46L50.9941 26.5741C52.1571 28.308 53.7824 29.581 55.829 30.3975L56.5702 28.54ZM52.659 25.4659C51.7619 24.1079 51.271 22.3154 51.2621 20.0188L49.2621 20.0266C49.2721 22.5974 49.8229 24.8012 50.9902 26.5682L52.659 25.4659ZM50.2621 21.0227H57.7621V19.0227H50.2621V21.0227ZM56.7635 20.0758C56.8181 21.1023 57.0789 22.0313 57.5937 22.8157L59.2658 21.7184C58.9851 21.2907 58.8008 20.7234 58.7607 19.9696L56.7635 20.0758ZM57.5937 22.8157C58.1071 23.5981 58.8245 24.1787 59.7076 24.5621L60.5041 22.7276C59.9478 22.486 59.5477 22.1481 59.2658 21.7184L57.5937 22.8157ZM59.7119 24.564C60.5939 24.942 61.6007 25.1136 62.7053 25.1136V23.1136C61.8023 23.1136 61.0761 22.9728 60.4998 22.7257L59.7119 24.564ZM62.7053 25.1136C63.6229 25.1136 64.4536 25.0012 65.166 24.74L64.4775 22.8623C64.0536 23.0177 63.4733 23.1136 62.7053 23.1136V25.1136ZM65.166 24.74C65.8587 24.486 66.4612 24.1054 66.8972 23.5569L65.3315 22.3124C65.1804 22.5025 64.9212 22.6996 64.4775 22.8623L65.166 24.74ZM66.8972 23.5569C67.3277 23.0153 67.5549 22.3821 67.5687 21.6905L65.5691 21.6505C65.564 21.9058 65.4882 22.1154 65.3315 22.3124L66.8972 23.5569ZM67.5687 21.6492C67.5544 20.9778 67.3257 20.3658 66.8878 19.8549L65.3693 21.1565C65.4996 21.3085 65.5645 21.473 65.5691 21.6917L67.5687 21.6492ZM66.9073 19.8784C66.4851 19.3543 65.8593 18.9701 65.1505 18.6739L64.3793 20.5193C64.9395 20.7534 65.2228 20.9753 65.3498 21.133L66.9073 19.8784ZM65.1622 18.6789C64.4445 18.3682 63.518 18.0961 62.4081 17.8528L61.9797 19.8063C63.029 20.0364 63.8164 20.2757 64.3677 20.5143L65.1622 18.6789ZM62.4048 17.852L59.507 17.227L59.0854 19.1821L61.9831 19.8071L62.4048 17.852ZM59.5082 17.2273C57.0455 16.6931 55.1862 15.8186 53.8626 14.6552L52.5422 16.1573C54.1921 17.6076 56.3954 18.5986 59.0842 19.1818L59.5082 17.2273ZM53.8677 14.6596C52.6373 13.5633 51.9923 12.0601 52.0007 10.0269L50.0007 10.0186C49.9903 12.5308 50.813 14.6166 52.5372 16.1529L53.8677 14.6596ZM52.0007 10.0176C51.9922 8.36347 52.4294 6.95922 53.2899 5.76284L51.6662 4.59511C50.5379 6.16388 49.9903 7.9888 50.0007 10.0279L52.0007 10.0176ZM53.2891 5.76386C54.1757 4.53441 55.4131 3.55601 57.0415 2.84196L56.2383 1.01031C54.3251 1.84929 52.7879 3.03946 51.6669 4.59409L53.2891 5.76386ZM57.0397 2.84274C58.6728 2.13043 60.5735 1.76136 62.7621 1.76136V-0.238638C60.3484 -0.238638 58.1676 0.168813 56.2401 1.00953L57.0397 2.84274ZM62.7621 1.76136C65.0011 1.76136 66.8838 2.13614 68.439 2.84933L69.2727 1.03135C67.3999 0.172567 65.2201 -0.238638 62.7621 -0.238638V1.76136ZM68.439 2.84933C69.9996 3.56494 71.1661 4.55438 71.9801 5.80861L73.6577 4.7198C72.6157 3.11418 71.1402 1.88771 69.2727 1.03135L68.439 2.84933ZM71.9843 5.81505C72.8025 7.05469 73.2308 8.52194 73.2394 10.255L75.2394 10.245C75.229 8.17124 74.7104 6.31462 73.6535 4.71336L71.9843 5.81505ZM74.2394 9.25H66.6825V11.25H74.2394V9.25ZM93.1669 30.25V31.25H93.9096L94.1243 30.539L93.1669 30.25ZM84.6442 30.25L83.6946 29.9366L83.2611 31.25H84.6442V30.25ZM94.2465 1.15909V0.15909H93.5235L93.2969 0.845646L94.2465 1.15909ZM105.042 1.15909L105.992 0.845646L105.765 0.15909H105.042V1.15909ZM114.644 30.25V31.25H116.027L115.594 29.9366L114.644 30.25ZM106.121 30.25L105.164 30.539L105.379 31.25H106.121V30.25ZM99.7578 9.17046L100.715 8.88145L100.501 8.17046H99.7578V9.17046ZM99.5306 9.17046V8.17046H98.7879L98.5732 8.88145L99.5306 9.17046ZM91.576 18.7727V17.7727H90.576V18.7727H91.576ZM107.599 18.7727H108.599V17.7727H107.599V18.7727ZM107.599 24.6818V25.6818H108.599V24.6818H107.599ZM91.576 24.6818H90.576V25.6818H91.576V24.6818ZM93.1669 29.25H84.6442V31.25H93.1669V29.25ZM85.5938 30.5634L95.1961 1.47253L93.2969 0.845646L83.6946 29.9366L85.5938 30.5634ZM94.2465 2.15909H105.042V0.15909H94.2465V2.15909ZM104.092 1.47253L113.695 30.5634L115.594 29.9366L105.992 0.845646L104.092 1.47253ZM114.644 29.25H106.121V31.25H114.644V29.25ZM107.079 29.961L100.715 8.88145L98.8005 9.45946L105.164 30.539L107.079 29.961ZM99.7578 8.17046H99.5306V10.1705H99.7578V8.17046ZM98.5732 8.88145L92.2096 29.961L94.1243 30.539L100.488 9.45946L98.5732 8.88145ZM91.576 19.7727H107.599V17.7727H91.576V19.7727ZM106.599 18.7727V24.6818H108.599V18.7727H106.599ZM107.599 23.6818H91.576V25.6818H107.599V23.6818ZM92.576 24.6818V18.7727H90.576V24.6818H92.576ZM117.446 30.25H116.446V31.25H117.446V30.25ZM117.446 1.15909V0.15909H116.446V1.15909H117.446ZM125.344 1.15909H126.344V0.15909H125.344V1.15909ZM125.344 23.8864H124.344V24.8864H125.344V23.8864ZM137.105 23.8864H138.105V22.8864H137.105V23.8864ZM137.105 30.25V31.25H138.105V30.25H137.105ZM118.446 30.25V1.15909H116.446V30.25H118.446ZM117.446 2.15909H125.344V0.15909H117.446V2.15909ZM124.344 1.15909V23.8864H126.344V1.15909H124.344ZM125.344 24.8864H137.105V22.8864H125.344V24.8864ZM136.105 23.8864V30.25H138.105V23.8864H136.105ZM137.105 29.25H117.446V31.25H137.105V29.25ZM140.298 30.25H139.298V31.25H140.298V30.25ZM140.298 1.15909V0.15909H139.298V1.15909H140.298ZM148.195 1.15909H149.195V0.15909H148.195V1.15909ZM148.195 23.8864H147.195V24.8864H148.195V23.8864ZM159.957 23.8864H160.957V22.8864H159.957V23.8864ZM159.957 30.25V31.25H160.957V30.25H159.957ZM141.298 30.25V1.15909H139.298V30.25H141.298ZM140.298 2.15909H148.195V0.15909H140.298V2.15909ZM147.195 1.15909V23.8864H149.195V1.15909H147.195ZM148.195 24.8864H159.957V22.8864H148.195V24.8864ZM158.957 23.8864V30.25H160.957V23.8864H158.957ZM159.957 29.25H140.298V31.25H159.957V29.25ZM9.18255 87.25V88.25H9.92524L10.1399 87.539L9.18255 87.25ZM0.659823 87.25L-0.289783 86.9366L-0.723322 88.25H0.659823V87.25ZM10.2621 58.1591V57.1591H9.53911L9.31249 57.8456L10.2621 58.1591ZM21.0576 58.1591L22.0072 57.8456L21.7805 57.1591H21.0576V58.1591ZM30.6598 87.25V88.25H32.043L31.6094 86.9366L30.6598 87.25ZM22.1371 87.25L21.1798 87.539L21.3944 88.25H22.1371V87.25ZM15.7735 66.1705L16.7308 65.8814L16.5161 65.1705H15.7735V66.1705ZM15.5462 66.1705V65.1705H14.8035L14.5889 65.8814L15.5462 66.1705ZM7.59164 75.7727V74.7727H6.59164V75.7727H7.59164ZM23.6144 75.7727H24.6144V74.7727H23.6144V75.7727ZM23.6144 81.6818V82.6818H24.6144V81.6818H23.6144ZM7.59164 81.6818H6.59164V82.6818H7.59164V81.6818ZM9.18255 86.25H0.659823V88.25H9.18255V86.25ZM1.60943 87.5634L11.2117 58.4725L9.31249 57.8456L-0.289783 86.9366L1.60943 87.5634ZM10.2621 59.1591H21.0576V57.1591H10.2621V59.1591ZM20.1079 58.4725L29.7102 87.5634L31.6094 86.9366L22.0072 57.8456L20.1079 58.4725ZM30.6598 86.25H22.1371V88.25H30.6598V86.25ZM23.0944 86.961L16.7308 65.8814L14.8161 66.4595L21.1798 87.539L23.0944 86.961ZM15.7735 65.1705H15.5462V67.1705H15.7735V65.1705ZM14.5889 65.8814L8.22522 86.961L10.1399 87.539L16.5035 66.4595L14.5889 65.8814ZM7.59164 76.7727H23.6144V74.7727H7.59164V76.7727ZM22.6144 75.7727V81.6818H24.6144V75.7727H22.6144ZM23.6144 80.6818H7.59164V82.6818H23.6144V80.6818ZM8.59164 81.6818V75.7727H6.59164V81.6818H8.59164ZM33.4617 87.25H32.4617V88.25H33.4617V87.25ZM33.4617 58.1591V57.1591H32.4617V58.1591H33.4617ZM51.6577 59.054L51.2893 59.9837L51.2913 59.9844L51.6577 59.054ZM55.081 61.5824L54.2634 62.1582L54.2668 62.163L55.081 61.5824ZM55.5355 68.358L54.6547 67.8844L54.6508 67.8918L55.5355 68.358ZM53.5753 70.5739L54.1469 71.3944L54.1531 71.3901L53.5753 70.5739ZM50.6208 71.7955L50.4231 70.8152L49.6208 70.977V71.7955H50.6208ZM50.6208 72.0795H49.6208V73.0424L50.5829 73.0788L50.6208 72.0795ZM54.0299 73.0312L53.532 73.8985L53.5381 73.902L54.0299 73.0312ZM56.473 75.4318L55.6127 75.9416L55.6148 75.9451L56.473 75.4318ZM56.1321 83.2585L55.302 82.7009L55.2991 82.7053L56.1321 83.2585ZM52.6094 86.1847L52.1871 85.2782L52.6094 86.1847ZM41.3594 80.9432H40.3594V81.9432H41.3594V80.9432ZM48.0355 80.2045L48.6319 81.0073L48.6392 81.0018L48.0355 80.2045ZM47.2259 75.1761L46.8283 76.0937L46.8338 76.0961L47.2259 75.1761ZM41.3594 74.8068V73.8068H40.3594V74.8068H41.3594ZM41.3594 69.9205H40.3594V70.9205H41.3594V69.9205ZM46.4304 69.5938L46.8103 70.5188H46.8103L46.4304 69.5938ZM47.6662 68.6562L46.8575 68.0681L46.855 68.0714L47.6662 68.6562ZM47.1549 65.0767L46.5548 65.8767L46.5625 65.8824L47.1549 65.0767ZM41.3594 64.3523V63.3523H40.3594V64.3523H41.3594ZM34.4617 87.25V58.1591H32.4617V87.25H34.4617ZM33.4617 59.1591H46.0753V57.1591H33.4617V59.1591ZM46.0753 59.1591C48.2085 59.1591 49.9354 59.4472 51.2893 59.9837L52.0261 58.1243C50.3686 57.4676 48.3739 57.1591 46.0753 57.1591V59.1591ZM51.2913 59.9844C52.6654 60.5255 53.6317 61.2614 54.2634 62.1582L55.8985 61.0065C54.9962 59.7254 53.6803 58.7756 52.0241 58.1235L51.2913 59.9844ZM54.2668 62.163C54.9099 63.0648 55.2458 64.1399 55.2458 65.4318H57.2458C57.2458 63.7692 56.8051 62.278 55.8952 61.0018L54.2668 62.163ZM55.2458 65.4318C55.2458 66.3486 55.0445 67.1595 54.6548 67.8844L56.4163 68.8315C56.9735 67.7951 57.2458 66.6552 57.2458 65.4318H55.2458ZM54.6508 67.8918C54.2629 68.628 53.7169 69.2485 52.9975 69.7577L54.1531 71.3901C55.1194 70.7061 55.8801 69.8493 56.4202 68.8241L54.6508 67.8918ZM53.0037 69.7533C52.286 70.2533 51.4317 70.6118 50.4231 70.8152L50.8185 72.7757C52.0636 72.5246 53.179 72.0686 54.1469 71.3944L53.0037 69.7533ZM49.6208 71.7955V72.0795H51.6208V71.7955H49.6208ZM50.5829 73.0788C51.6813 73.1204 52.6582 73.3969 53.532 73.8985L54.5277 72.164C53.3561 71.4914 52.0603 71.1334 50.6586 71.0803L50.5829 73.0788ZM53.5381 73.902C54.4066 74.3925 55.0947 75.0674 55.6127 75.9416L57.3333 74.922C56.6392 73.7507 55.6986 72.8253 54.5216 72.1605L53.5381 73.902ZM55.6148 75.9451C56.1139 76.7795 56.3821 77.7892 56.3821 79.0114H58.3821C58.3821 77.4874 58.0443 76.1107 57.3312 74.9185L55.6148 75.9451ZM56.3821 79.0114C56.3821 80.4171 56.0173 81.6361 55.302 82.7009L56.9622 83.8161C57.9136 82.3999 58.3821 80.7874 58.3821 79.0114H56.3821ZM55.2991 82.7053C54.5897 83.7734 53.5671 84.6354 52.1871 85.2782L53.0317 87.0911C54.701 86.3135 56.0268 85.2247 56.9652 83.8118L55.2991 82.7053ZM52.1871 85.2782C50.8241 85.9132 49.1569 86.25 47.1549 86.25V88.25C49.3763 88.25 51.3455 87.8766 53.0317 87.0911L52.1871 85.2782ZM47.1549 86.25H33.4617V88.25H47.1549V86.25ZM41.3594 81.9432H45.0526V79.9432H41.3594V81.9432ZM45.0526 81.9432C46.473 81.9432 47.7202 81.6845 48.6319 81.0073L47.4392 79.4018C47.0251 79.7094 46.2837 79.9432 45.0526 79.9432V81.9432ZM48.6392 81.0018C49.5968 80.2767 50.0299 79.2159 50.0299 77.9886H48.0299C48.0299 78.7121 47.8 79.1286 47.4319 79.4073L48.6392 81.0018ZM50.0299 77.9886C50.0299 77.151 49.8362 76.3723 49.3957 75.7048L47.7265 76.8065C47.911 77.0861 48.0299 77.4626 48.0299 77.9886H50.0299ZM49.3957 75.7048C48.9637 75.0503 48.3561 74.5708 47.618 74.2562L46.8338 76.0961C47.2509 76.2739 47.5335 76.5141 47.7265 76.8065L49.3957 75.7048ZM47.6235 74.2586C46.8982 73.9443 46.0687 73.8068 45.1662 73.8068V75.8068C45.8736 75.8068 46.4172 75.9155 46.8283 76.0937L47.6235 74.2586ZM45.1662 73.8068H41.3594V75.8068H45.1662V73.8068ZM40.3594 74.8068V80.9432H42.3594V74.8068H40.3594ZM41.3594 70.9205H44.598V68.9205H41.3594V70.9205ZM44.598 70.9205C45.3934 70.9205 46.1374 70.7951 46.8103 70.5188L46.0505 68.6687C45.6628 68.828 45.1852 68.9205 44.598 68.9205V70.9205ZM46.8103 70.5188C47.4882 70.2403 48.0598 69.8203 48.4774 69.2411L46.855 68.0714C46.6855 68.3066 46.4332 68.5115 46.0505 68.6687L46.8103 70.5188ZM48.475 69.2444C48.9212 68.6308 49.1208 67.9097 49.1208 67.1364H47.1208C47.1208 67.5562 47.0173 67.8483 46.8575 68.0681L48.475 69.2444ZM49.1208 67.1364C49.1208 65.9646 48.6824 64.9586 47.7472 64.271L46.5625 65.8824C46.9152 66.1417 47.1208 66.5089 47.1208 67.1364H49.1208ZM47.7549 64.2767C46.9021 63.6371 45.8635 63.3523 44.7117 63.3523V65.3523C45.5296 65.3523 46.1198 65.5504 46.5549 65.8767L47.7549 64.2767ZM44.7117 63.3523H41.3594V65.3523H44.7117V63.3523ZM40.3594 64.3523V69.9205H42.3594V64.3523H40.3594ZM86.473 80.9006L87.3424 81.3947L87.3433 81.3931L86.473 80.9006ZM81.3736 85.9432L81.8426 86.8264L81.8456 86.8248L81.3736 85.9432ZM67.027 85.929L66.5503 86.8081L66.555 86.8106L67.027 85.929ZM61.9418 80.8722L61.0699 81.3619L61.0724 81.3663L61.9418 80.8722ZM61.9418 64.5227L61.0715 64.0302L61.0708 64.0314L61.9418 64.5227ZM67.027 59.4801L67.4976 60.3625L67.499 60.3617L67.027 59.4801ZM81.3736 59.4801L80.9016 60.3617L80.9046 60.3633L81.3736 59.4801ZM86.473 64.5227L85.6027 65.0153L85.6037 65.0169L86.473 64.5227ZM79.5412 68.3011L78.6058 68.6547L78.6092 68.6636L79.5412 68.3011ZM77.51 65.5739L76.9353 66.3923L76.9453 66.3992L77.51 65.5739ZM70.9049 65.5739L71.4736 66.3964L71.4754 66.3951L70.9049 65.5739ZM68.8736 68.3011L67.9406 67.9412L67.9391 67.9451L68.8736 68.3011ZM68.8736 77.1222L67.9381 77.4757L67.9416 77.4846L68.8736 77.1222ZM70.9049 79.8494L70.3302 80.6679L70.3402 80.6747L70.9049 79.8494ZM77.51 79.8494L78.0787 80.6719L78.0805 80.6707L77.51 79.8494ZM79.5412 77.1222L78.6082 76.7622L78.6067 76.7662L79.5412 77.1222ZM87.3622 72.7045C87.3622 75.8157 86.7574 78.3678 85.6027 80.408L87.3433 81.3931C88.7076 78.9825 89.3622 76.0706 89.3622 72.7045H87.3622ZM85.6037 80.4064C84.4325 82.4669 82.8669 84.0094 80.9016 85.0616L81.8456 86.8248C84.1606 85.5853 85.9946 83.7661 87.3424 81.3947L85.6037 80.4064ZM80.9046 85.06C78.9212 86.1131 76.698 86.6477 74.2145 86.6477V88.6477C76.9961 88.6477 79.5457 88.046 81.8426 86.8264L80.9046 85.06ZM74.2145 86.6477C71.7121 86.6477 69.4809 86.1085 67.499 85.0474L66.555 86.8106C68.8534 88.0412 71.4138 88.6477 74.2145 88.6477V86.6477ZM67.5037 85.0499C65.546 83.9884 63.9833 82.4402 62.8112 80.378L61.0724 81.3663C62.4192 83.7359 64.2467 85.559 66.5504 86.8081L67.5037 85.0499ZM62.8137 80.3824C61.6669 78.3408 61.0668 75.7968 61.0668 72.7045H59.0668C59.0668 76.0517 59.7167 78.9527 61.0699 81.3619L62.8137 80.3824ZM61.0668 72.7045C61.0668 69.592 61.6674 67.0444 62.8128 65.014L61.0708 64.0314C59.7162 66.4328 59.0668 69.3398 59.0668 72.7045H61.0668ZM62.8121 65.0153C63.9838 62.9449 65.5445 61.4041 67.4976 60.3625L66.5564 58.5978C64.2482 59.8288 62.4187 61.6497 61.0715 64.0302L62.8121 65.0153ZM67.499 60.3617C69.4809 59.3006 71.7121 58.7614 74.2145 58.7614V56.7614C71.4138 56.7614 68.8534 57.3679 66.555 58.5985L67.499 60.3617ZM74.2145 58.7614C76.6967 58.7614 78.9187 59.3001 80.9016 60.3617L81.8456 58.5985C79.5482 57.3685 76.9975 56.7614 74.2145 56.7614V58.7614ZM80.9046 60.3633C82.867 61.4053 84.4317 62.9461 85.6027 65.0153L87.3433 64.0302C85.9955 61.6486 84.1605 59.8276 81.8426 58.5969L80.9046 60.3633ZM85.6037 65.0169C86.7573 67.0466 87.3622 69.5931 87.3622 72.7045H89.3622C89.3622 69.3387 88.7077 66.4306 87.3424 64.0286L85.6037 65.0169ZM81.2372 72.7045C81.2372 70.88 80.9952 69.2809 80.4732 67.9387L78.6092 68.6636C79.0153 69.7077 79.2372 71.0442 79.2372 72.7045H81.2372ZM80.4766 67.9476C79.963 66.5887 79.1719 65.4993 78.0747 64.7486L76.9453 66.3992C77.6473 66.8795 78.2103 67.6083 78.6058 68.6547L80.4766 67.9476ZM78.0846 64.7554C76.9946 63.9901 75.6847 63.6364 74.2145 63.6364V65.6364C75.3579 65.6364 76.2451 65.9076 76.9353 66.3923L78.0846 64.7554ZM74.2145 63.6364C72.7439 63.6364 71.4317 63.9902 70.3343 64.7526L71.4754 66.3951C72.1773 65.9075 73.0715 65.6364 74.2145 65.6364V63.6364ZM70.3361 64.7514C69.2514 65.5014 68.4628 66.5878 67.9406 67.9412L69.8066 68.6611C70.2124 67.6092 70.778 66.8774 71.4736 66.3964L70.3361 64.7514ZM67.9391 67.9451C67.4286 69.2852 67.1918 70.8819 67.1918 72.7045H69.1918C69.1918 71.0424 69.4095 69.7035 69.8081 68.6571L67.9391 67.9451ZM67.1918 72.7045C67.1918 74.5276 67.4287 76.1278 67.9382 77.4757L69.809 76.7686C69.4094 75.7112 69.1918 74.3663 69.1918 72.7045H67.1918ZM67.9416 77.4846C68.4642 78.8285 69.2517 79.9106 70.3302 80.6678L71.4795 79.031C70.7777 78.5383 70.211 77.8022 69.8056 76.7597L67.9416 77.4846ZM70.3402 80.6747C71.4369 81.4251 72.747 81.7727 74.2145 81.7727V79.7727C73.0684 79.7727 72.1721 79.5048 71.4695 79.0241L70.3402 80.6747ZM74.2145 81.7727C75.6817 81.7727 76.9893 81.4252 78.0787 80.6719L76.9412 79.0269C76.2503 79.5047 75.361 79.7727 74.2145 79.7727V81.7727ZM78.0805 80.6707C79.1716 79.9127 79.9617 78.8275 80.4757 77.4782L78.6067 76.7662C78.2117 77.8032 77.6476 78.5362 76.9394 79.0282L78.0805 80.6707ZM80.4742 77.4821C80.9951 76.132 81.2372 74.5295 81.2372 72.7045H79.2372C79.2372 74.3645 79.0154 75.707 78.6082 76.7622L80.4742 77.4821ZM109.232 58.1591V57.1591H108.232V58.1591H109.232ZM117.13 58.1591H118.13V57.1591H117.13V58.1591ZM115.539 82.5483L114.703 82.0004L114.702 82.0016L115.539 82.5483ZM111.136 86.2841L111.555 87.1918L111.559 87.19L111.136 86.2841ZM97.9823 86.2841L97.5589 87.19L97.5626 87.1918L97.9823 86.2841ZM93.5789 82.5483L92.7378 83.0893L92.7415 83.095L93.5789 82.5483ZM92.0164 58.1591V57.1591H91.0164V58.1591H92.0164ZM99.9141 58.1591H100.914V57.1591H99.9141V58.1591ZM100.511 78.5284L99.6382 79.017L99.641 79.022L100.511 78.5284ZM102.158 80.1761L101.665 81.0458L101.67 81.0486L102.158 80.1761ZM106.988 80.1761L107.482 81.0458L106.988 80.1761ZM108.636 78.5284L109.505 79.022L109.508 79.017L108.636 78.5284ZM109.232 59.1591H117.13V57.1591H109.232V59.1591ZM116.13 58.1591V76.7955H118.13V58.1591H116.13ZM116.13 76.7955C116.13 78.8457 115.642 80.5665 114.703 82.0004L116.376 83.0962C117.558 81.2914 118.13 79.1771 118.13 76.7955H116.13ZM114.702 82.0016C113.761 83.4427 112.442 84.5696 110.712 85.3781L111.559 87.19C113.598 86.2372 115.215 84.8736 116.376 83.095L114.702 82.0016ZM110.716 85.3764C108.987 86.1759 106.947 86.5909 104.573 86.5909V88.5909C107.18 88.5909 109.516 88.1347 111.555 87.1918L110.716 85.3764ZM104.573 86.5909C102.179 86.5909 100.13 86.1755 98.4019 85.3764L97.5626 87.1918C99.6032 88.1352 101.949 88.5909 104.573 88.5909V86.5909ZM98.4056 85.3781C96.6756 84.5696 95.3571 83.4427 94.4162 82.0016L92.7415 83.095C93.9028 84.8736 95.52 86.2372 97.5589 87.19L98.4056 85.3781ZM94.4199 82.0073C93.497 80.5726 93.0164 78.8492 93.0164 76.7955H91.0164C91.0164 79.1736 91.5774 81.2854 92.7378 83.0893L94.4199 82.0073ZM93.0164 76.7955V58.1591H91.0164V76.7955H93.0164ZM92.0164 59.1591H99.9141V57.1591H92.0164V59.1591ZM98.9141 58.1591V76.1136H100.914V58.1591H98.9141ZM98.9141 76.1136C98.9141 77.1659 99.1483 78.1422 99.6382 79.017L101.383 78.0398C101.078 77.4941 100.914 76.8606 100.914 76.1136H98.9141ZM99.641 79.022C100.128 79.8798 100.807 80.559 101.665 81.0458L102.652 79.3064C102.108 78.9978 101.689 78.5786 101.38 78.0348L99.641 79.022ZM101.67 81.0486C102.545 81.5385 103.521 81.7727 104.573 81.7727V79.7727C103.826 79.7727 103.193 79.6092 102.647 79.3036L101.67 81.0486ZM104.573 81.7727C105.633 81.7727 106.612 81.5395 107.482 81.0458L106.494 79.3064C105.963 79.6083 105.332 79.7727 104.573 79.7727V81.7727ZM107.482 81.0458C108.339 80.559 109.019 79.8798 109.505 79.022L107.766 78.0348C107.457 78.5786 107.038 78.9978 106.494 79.3064L107.482 81.0458ZM109.508 79.017C109.998 78.1422 110.232 77.1659 110.232 76.1136H108.232C108.232 76.8606 108.069 77.4941 107.763 78.0398L109.508 79.017ZM110.232 76.1136V58.1591H108.232V76.1136H110.232ZM120.088 64.5227H119.088V65.5227H120.088V64.5227ZM120.088 58.1591V57.1591H119.088V58.1591H120.088ZM145.372 58.1591H146.372V57.1591H145.372V58.1591ZM145.372 64.5227V65.5227H146.372V64.5227H145.372ZM136.622 64.5227V63.5227H135.622V64.5227H136.622ZM136.622 87.25V88.25H137.622V87.25H136.622ZM128.838 87.25H127.838V88.25H128.838V87.25ZM128.838 64.5227H129.838V63.5227H128.838V64.5227ZM121.088 64.5227V58.1591H119.088V64.5227H121.088ZM120.088 59.1591H145.372V57.1591H120.088V59.1591ZM144.372 58.1591V64.5227H146.372V58.1591H144.372ZM145.372 63.5227H136.622V65.5227H145.372V63.5227ZM135.622 64.5227V87.25H137.622V64.5227H135.622ZM136.622 86.25H128.838V88.25H136.622V86.25ZM129.838 87.25V64.5227H127.838V87.25H129.838ZM128.838 63.5227H120.088V65.5227H128.838V63.5227ZM2.00073 144.25H1.00073V145.25H2.00073V144.25ZM2.00073 109.341V108.341H1.00073V109.341H2.00073ZM11.478 109.341H12.478V108.341H11.478V109.341ZM11.478 122.977H10.478V123.977H11.478V122.977ZM24.0235 122.977V123.977H25.0235V122.977H24.0235ZM24.0235 109.341V108.341H23.0235V109.341H24.0235ZM33.5007 109.341H34.5007V108.341H33.5007V109.341ZM33.5007 144.25V145.25H34.5007V144.25H33.5007ZM24.0235 144.25H23.0235V145.25H24.0235V144.25ZM24.0235 130.614H25.0235V129.614H24.0235V130.614ZM11.478 130.614V129.614H10.478V130.614H11.478ZM11.478 144.25V145.25H12.478V144.25H11.478ZM3.00073 144.25V109.341H1.00073V144.25H3.00073ZM2.00073 110.341H11.478V108.341H2.00073V110.341ZM10.478 109.341V122.977H12.478V109.341H10.478ZM11.478 123.977H24.0235V121.977H11.478V123.977ZM25.0235 122.977V109.341H23.0235V122.977H25.0235ZM24.0235 110.341H33.5007V108.341H24.0235V110.341ZM32.5007 109.341V144.25H34.5007V109.341H32.5007ZM33.5007 143.25H24.0235V145.25H33.5007V143.25ZM25.0235 144.25V130.614H23.0235V144.25H25.0235ZM24.0235 129.614H11.478V131.614H24.0235V129.614ZM10.478 130.614V144.25H12.478V130.614H10.478ZM11.478 143.25H2.00073V145.25H11.478V143.25ZM58.6598 109.341V108.341H57.6598V109.341H58.6598ZM68.1371 109.341H69.1371V108.341H68.1371V109.341ZM66.228 138.608L65.3915 138.06L65.3907 138.061L66.228 138.608ZM60.9439 143.091L61.3636 143.999L61.3673 143.997L60.9439 143.091ZM45.1598 143.091L44.7364 143.997L44.7402 143.999L45.1598 143.091ZM39.8757 138.608L39.0347 139.149L39.0384 139.155L39.8757 138.608ZM38.0007 109.341V108.341H37.0007V109.341H38.0007ZM47.478 109.341H48.478V108.341H47.478V109.341ZM48.1939 133.784L47.3214 134.273L47.3242 134.278L48.1939 133.784ZM50.1712 135.761L49.6776 136.631L49.6826 136.634L50.1712 135.761ZM55.9666 135.761L56.4602 136.631L55.9666 135.761ZM57.9439 133.784L58.8136 134.278L58.8164 134.273L57.9439 133.784ZM58.6598 110.341H68.1371V108.341H58.6598V110.341ZM67.1371 109.341V131.705H69.1371V109.341H67.1371ZM67.1371 131.705C67.1371 134.198 66.5427 136.302 65.3915 138.06L67.0645 139.156C68.4587 137.027 69.1371 134.529 69.1371 131.705H67.1371ZM65.3907 138.061C64.2395 139.824 62.6275 141.2 60.5205 142.185L61.3673 143.997C63.783 142.868 65.6938 141.255 67.0653 139.155L65.3907 138.061ZM60.5243 142.183C58.4181 143.157 55.9411 143.659 53.0689 143.659V145.659C56.174 145.659 58.947 145.116 61.3636 143.999L60.5243 142.183ZM53.0689 143.659C50.1728 143.659 47.6847 143.157 45.5795 142.183L44.7402 143.999C47.1576 145.116 49.9424 145.659 53.0689 145.659V143.659ZM45.5832 142.185C43.4762 141.2 41.8643 139.824 40.713 138.061L39.0384 139.155C40.4099 141.255 42.3207 142.868 44.7364 143.997L45.5832 142.185ZM40.7168 138.067C39.5855 136.308 39.0007 134.201 39.0007 131.705H37.0007C37.0007 134.526 37.666 137.021 39.0347 139.149L40.7168 138.067ZM39.0007 131.705V109.341H37.0007V131.705H39.0007ZM38.0007 110.341H47.478V108.341H38.0007V110.341ZM46.478 109.341V130.886H48.478V109.341H46.478ZM46.478 130.886C46.478 132.119 46.752 133.256 47.3214 134.273L49.0664 133.295C48.6813 132.608 48.478 131.813 48.478 130.886H46.478ZM47.3242 134.278C47.8906 135.276 48.6797 136.065 49.6776 136.631L50.6648 134.892C49.9809 134.504 49.4518 133.974 49.0636 133.29L47.3242 134.278ZM49.6826 136.634C50.6994 137.203 51.8367 137.477 53.0689 137.477V135.477C52.1421 135.477 51.3475 135.274 50.6598 134.889L49.6826 136.634ZM53.0689 137.477C54.3103 137.477 55.4503 137.204 56.4602 136.631L55.473 134.892C54.8011 135.273 54.0094 135.477 53.0689 135.477V137.477ZM56.4602 136.631C57.4582 136.065 58.2472 135.276 58.8136 134.278L57.0742 133.29C56.6861 133.974 56.1569 134.504 55.473 134.892L56.4602 136.631ZM58.8164 134.273C59.3858 133.256 59.6598 132.119 59.6598 130.886H57.6598C57.6598 131.813 57.4565 132.608 57.0714 133.295L58.8164 134.273ZM59.6598 130.886V109.341H57.6598V130.886H59.6598ZM102.846 109.341H103.846V108.341H102.846V109.341ZM102.846 144.25V145.25H103.846V144.25H102.846ZM94.9368 144.25L94.1129 144.817L94.4109 145.25H94.9368V144.25ZM82.3232 125.909L83.1471 125.342L82.8491 124.909H82.3232V125.909ZM82.1186 125.909V124.909H81.1186V125.909H82.1186ZM82.1186 144.25V145.25H83.1186V144.25H82.1186ZM72.6414 144.25H71.6414V145.25H72.6414V144.25ZM72.6414 109.341V108.341H71.6414V109.341H72.6414ZM80.6868 109.341L81.5141 108.779L81.2165 108.341H80.6868V109.341ZM93.0959 127.614L92.2686 128.175L92.5662 128.614H93.0959V127.614ZM93.3686 127.614V128.614H94.3686V127.614H93.3686ZM93.3686 109.341V108.341H92.3686V109.341H93.3686ZM101.846 109.341V144.25H103.846V109.341H101.846ZM102.846 143.25H94.9368V145.25H102.846V143.25ZM95.7608 143.683L83.1471 125.342L81.4992 126.476L94.1129 144.817L95.7608 143.683ZM82.3232 124.909H82.1186V126.909H82.3232V124.909ZM81.1186 125.909V144.25H83.1186V125.909H81.1186ZM82.1186 143.25H72.6414V145.25H82.1186V143.25ZM73.6414 144.25V109.341H71.6414V144.25H73.6414ZM72.6414 110.341H80.6868V108.341H72.6414V110.341ZM79.8595 109.903L92.2686 128.175L93.9232 127.052L81.5141 108.779L79.8595 109.903ZM93.0959 128.614H93.3686V126.614H93.0959V128.614ZM94.3686 127.614V109.341H92.3686V127.614H94.3686ZM93.3686 110.341H102.846V108.341H93.3686V110.341ZM106.374 116.977H105.374V117.977H106.374V116.977ZM106.374 109.341V108.341H105.374V109.341H106.374ZM136.715 109.341H137.715V108.341H136.715V109.341ZM136.715 116.977V117.977H137.715V116.977H136.715ZM126.215 116.977V115.977H125.215V116.977H126.215ZM126.215 144.25V145.25H127.215V144.25H126.215ZM116.874 144.25H115.874V145.25H116.874V144.25ZM116.874 116.977H117.874V115.977H116.874V116.977ZM107.374 116.977V109.341H105.374V116.977H107.374ZM106.374 110.341H136.715V108.341H106.374V110.341ZM135.715 109.341V116.977H137.715V109.341H135.715ZM136.715 115.977H126.215V117.977H136.715V115.977ZM125.215 116.977V144.25H127.215V116.977H125.215ZM126.215 143.25H116.874V145.25H126.215V143.25ZM117.874 144.25V116.977H115.874V144.25H117.874ZM116.874 115.977H106.374V117.977H116.874V115.977ZM149.759 109.341H150.759V108.341H149.759V109.341ZM149.759 144.25V145.25H150.759V144.25H149.759ZM140.282 144.25H139.282V145.25H140.282V144.25ZM140.282 109.341V108.341H139.282V109.341H140.282ZM148.759 109.341V144.25H150.759V109.341H148.759ZM149.759 143.25H140.282V145.25H149.759V143.25ZM141.282 144.25V109.341H139.282V144.25H141.282ZM140.282 110.341H149.759V108.341H140.282V110.341ZM184.455 109.341H185.455V108.341H184.455V109.341ZM184.455 144.25V145.25H185.455V144.25H184.455ZM176.546 144.25L175.722 144.817L176.02 145.25H176.546V144.25ZM163.933 125.909L164.757 125.342L164.458 124.909H163.933V125.909ZM163.728 125.909V124.909H162.728V125.909H163.728ZM163.728 144.25V145.25H164.728V144.25H163.728ZM154.251 144.25H153.251V145.25H154.251V144.25ZM154.251 109.341V108.341H153.251V109.341H154.251ZM162.296 109.341L163.123 108.779L162.826 108.341H162.296V109.341ZM174.705 127.614L173.878 128.175L174.176 128.614H174.705V127.614ZM174.978 127.614V128.614H175.978V127.614H174.978ZM174.978 109.341V108.341H173.978V109.341H174.978ZM183.455 109.341V144.25H185.455V109.341H183.455ZM184.455 143.25H176.546V145.25H184.455V143.25ZM177.37 143.683L164.757 125.342L163.109 126.476L175.722 144.817L177.37 143.683ZM163.933 124.909H163.728V126.909H163.933V124.909ZM162.728 125.909V144.25H164.728V125.909H162.728ZM163.728 143.25H154.251V145.25H163.728V143.25ZM155.251 144.25V109.341H153.251V144.25H155.251ZM154.251 110.341H162.296V108.341H154.251V110.341ZM161.469 109.903L173.878 128.175L175.533 127.052L163.123 108.779L161.469 109.903ZM174.705 128.614H174.978V126.614H174.705V128.614ZM175.978 127.614V109.341H173.978V127.614H175.978ZM174.978 110.341H184.455V108.341H174.978V110.341ZM211.609 120.864L210.637 121.102L210.824 121.864H211.609V120.864ZM210.91 119.278L210.084 119.842L210.091 119.852L210.91 119.278ZM209.717 118.102L209.139 118.919L209.15 118.927L209.162 118.934L209.717 118.102ZM208.08 117.369L207.813 118.333L207.823 118.336L207.834 118.338L208.08 117.369ZM201.978 118.256L201.418 117.428L201.414 117.43L201.978 118.256ZM199.421 121.545L198.497 121.164L198.494 121.17L199.421 121.545ZM199.387 131.977L198.453 132.335L199.387 131.977ZM201.876 135.318L201.302 136.137L201.876 135.318ZM209.58 135.847L209.181 134.93L209.177 134.931L209.58 135.847ZM211.745 134.057L210.894 133.531L211.745 134.057ZM212.461 131.33L212.565 130.335L211.461 130.22V131.33H212.461ZM214.097 131.5V132.5L214.201 130.505L214.097 131.5ZM206.12 131.5H205.12V132.5H206.12V131.5ZM206.12 124.75V123.75H205.12V124.75H206.12ZM221.597 124.75H222.597V123.75H221.597V124.75ZM219.569 137.756L218.711 137.242L218.71 137.244L219.569 137.756ZM214.012 142.938L214.464 143.829L214.466 143.828L214.012 142.938ZM196.967 142.562L196.477 143.434L196.967 142.562ZM190.95 136.392L190.068 136.865L190.07 136.867L190.95 136.392ZM190.114 119.193L189.185 118.823L189.184 118.828L190.114 119.193ZM193.796 113.551L194.495 114.266L194.498 114.263L193.796 113.551ZM199.234 110.057L199.59 110.991L199.594 110.989L199.234 110.057ZM211.609 109.75L211.292 110.699L211.3 110.701L211.609 109.75ZM216.33 112.239L215.71 113.023L215.717 113.028L216.33 112.239ZM219.654 116.04L220.522 115.542L219.654 116.04ZM221.188 120.864V121.864H222.298L222.183 120.76L221.188 120.864ZM212.58 120.625C212.406 119.917 212.126 119.272 211.729 118.705L210.091 119.852C210.33 120.194 210.516 120.606 210.637 121.102L212.58 120.625ZM211.736 118.714C211.344 118.141 210.854 117.658 210.271 117.27L209.162 118.934C209.534 119.183 209.839 119.484 210.084 119.842L211.736 118.714ZM210.294 117.286C209.716 116.877 209.055 116.586 208.327 116.4L207.834 118.338C208.355 118.471 208.785 118.668 209.139 118.919L210.294 117.286ZM208.348 116.406C207.635 116.208 206.867 116.114 206.052 116.114V118.114C206.714 118.114 207.299 118.19 207.813 118.333L208.348 116.406ZM206.052 116.114C204.296 116.114 202.735 116.536 201.418 117.428L202.538 119.084C203.471 118.453 204.626 118.114 206.052 118.114V116.114ZM201.414 117.43C200.117 118.317 199.151 119.58 198.497 121.164L200.346 121.927C200.874 120.648 201.612 119.717 202.542 119.081L201.414 117.43ZM198.494 121.17C197.854 122.752 197.552 124.614 197.552 126.727H199.552C199.552 124.795 199.829 123.203 200.348 121.921L198.494 121.17ZM197.552 126.727C197.552 128.859 197.841 130.737 198.453 132.335L200.321 131.62C199.819 130.309 199.552 128.687 199.552 126.727H197.552ZM198.453 132.335C199.07 133.945 200.012 135.233 201.302 136.137L202.45 134.499C201.535 133.858 200.818 132.918 200.321 131.62L198.453 132.335ZM201.302 136.137C202.606 137.051 204.187 137.477 205.984 137.477V135.477C204.508 135.477 203.35 135.131 202.45 134.499L201.302 136.137ZM205.984 137.477C207.516 137.477 208.863 137.255 209.983 136.762L209.177 134.931C208.388 135.279 207.338 135.477 205.984 135.477V137.477ZM209.979 136.763C211.101 136.275 211.995 135.555 212.596 134.582L210.894 133.531C210.541 134.104 209.991 134.577 209.181 134.93L209.979 136.763ZM212.596 134.582C213.185 133.629 213.461 132.532 213.461 131.33H211.461C211.461 132.218 211.26 132.939 210.894 133.531L212.596 134.582ZM212.357 132.324L213.994 132.495L214.201 130.505L212.565 130.335L212.357 132.324ZM214.097 130.5H206.12V132.5H214.097V130.5ZM207.12 131.5V124.75H205.12V131.5H207.12ZM206.12 125.75H221.597V123.75H206.12V125.75ZM220.597 124.75V129.591H222.597V124.75H220.597ZM220.597 129.591C220.597 132.63 219.953 135.166 218.711 137.242L220.427 138.269C221.89 135.823 222.597 132.916 222.597 129.591H220.597ZM218.71 137.244C217.467 139.33 215.756 140.926 213.558 142.047L214.466 143.828C216.996 142.539 218.989 140.682 220.428 138.268L218.71 137.244ZM213.56 142.046C211.368 143.157 208.828 143.727 205.916 143.727V145.727C209.094 145.727 211.952 145.104 214.464 143.829L213.56 142.046ZM205.916 143.727C202.663 143.727 199.854 143.038 197.457 141.691L196.477 143.434C199.216 144.974 202.373 145.727 205.916 145.727V143.727ZM197.457 141.691C195.058 140.343 193.186 138.426 191.829 135.917L190.07 136.867C191.6 139.699 193.739 141.896 196.477 143.434L197.457 141.691ZM191.831 135.92C190.492 133.422 189.802 130.416 189.802 126.864H187.802C187.802 130.675 188.543 134.021 190.068 136.865L191.831 135.92ZM189.802 126.864C189.802 124.077 190.224 121.648 191.045 119.559L189.184 118.828C188.254 121.193 187.802 123.877 187.802 126.864H189.802ZM191.044 119.563C191.883 117.453 193.036 115.694 194.495 114.266L193.097 112.836C191.42 114.477 190.118 116.478 189.185 118.823L191.044 119.563ZM194.498 114.263C195.968 112.815 197.662 111.726 199.59 110.991L198.877 109.122C196.691 109.956 194.761 111.196 193.094 112.839L194.498 114.263ZM199.594 110.989C201.529 110.241 203.61 109.864 205.847 109.864V107.864C203.38 107.864 201.052 108.281 198.873 109.124L199.594 110.989ZM205.847 109.864C207.819 109.864 209.632 110.145 211.292 110.699L211.925 108.801C210.04 108.173 208.012 107.864 205.847 107.864V109.864ZM211.3 110.701C212.98 111.247 214.446 112.022 215.71 113.023L216.951 111.455C215.487 110.296 213.806 109.412 211.918 108.799L211.3 110.701ZM215.717 113.028C216.992 114.019 218.013 115.188 218.787 116.537L220.522 115.542C219.614 113.96 218.418 112.595 216.944 111.449L215.717 113.028ZM218.787 116.537C219.555 117.877 220.026 119.35 220.194 120.967L222.183 120.76C221.987 118.877 221.435 117.134 220.522 115.542L218.787 116.537ZM221.188 119.864H211.609V121.864H221.188V119.864ZM1.04619 173.977H0.046187V174.977H1.04619V173.977ZM1.04619 166.341V165.341H0.046187V166.341H1.04619ZM31.3871 166.341H32.3871V165.341H31.3871V166.341ZM31.3871 173.977V174.977H32.3871V173.977H31.3871ZM20.8871 173.977V172.977H19.8871V173.977H20.8871ZM20.8871 201.25V202.25H21.8871V201.25H20.8871ZM11.5462 201.25H10.5462V202.25H11.5462V201.25ZM11.5462 173.977H12.5462V172.977H11.5462V173.977ZM2.04619 173.977V166.341H0.046187V173.977H2.04619ZM1.04619 167.341H31.3871V165.341H1.04619V167.341ZM30.3871 166.341V173.977H32.3871V166.341H30.3871ZM31.3871 172.977H20.8871V174.977H31.3871V172.977ZM19.8871 173.977V201.25H21.8871V173.977H19.8871ZM20.8871 200.25H11.5462V202.25H20.8871V200.25ZM12.5462 201.25V173.977H10.5462V201.25H12.5462ZM11.5462 172.977H1.04619V174.977H11.5462V172.977ZM34.9539 201.25H33.9539V202.25H34.9539V201.25ZM34.9539 166.341V165.341H33.9539V166.341H34.9539ZM44.4311 166.341H45.4311V165.341H44.4311V166.341ZM44.4311 179.977H43.4311V180.977H44.4311V179.977ZM56.9766 179.977V180.977H57.9766V179.977H56.9766ZM56.9766 166.341V165.341H55.9766V166.341H56.9766ZM66.4539 166.341H67.4539V165.341H66.4539V166.341ZM66.4539 201.25V202.25H67.4539V201.25H66.4539ZM56.9766 201.25H55.9766V202.25H56.9766V201.25ZM56.9766 187.614H57.9766V186.614H56.9766V187.614ZM44.4311 187.614V186.614H43.4311V187.614H44.4311ZM44.4311 201.25V202.25H45.4311V201.25H44.4311ZM35.9539 201.25V166.341H33.9539V201.25H35.9539ZM34.9539 167.341H44.4311V165.341H34.9539V167.341ZM43.4311 166.341V179.977H45.4311V166.341H43.4311ZM44.4311 180.977H56.9766V178.977H44.4311V180.977ZM57.9766 179.977V166.341H55.9766V179.977H57.9766ZM56.9766 167.341H66.4539V165.341H56.9766V167.341ZM65.4539 166.341V201.25H67.4539V166.341H65.4539ZM66.4539 200.25H56.9766V202.25H66.4539V200.25ZM57.9766 201.25V187.614H55.9766V201.25H57.9766ZM56.9766 186.614H44.4311V188.614H56.9766V186.614ZM43.4311 187.614V201.25H45.4311V187.614H43.4311ZM44.4311 200.25H34.9539V202.25H44.4311V200.25ZM70.9539 201.25H69.9539V202.25H70.9539V201.25ZM70.9539 166.341V165.341H69.9539V166.341H70.9539ZM96.1129 166.341H97.1129V165.341H96.1129V166.341ZM96.1129 173.977V174.977H97.1129V173.977H96.1129ZM80.4311 173.977V172.977H79.4311V173.977H80.4311ZM80.4311 179.977H79.4311V180.977H80.4311V179.977ZM94.8175 179.977H95.8175V178.977H94.8175V179.977ZM94.8175 187.614V188.614H95.8175V187.614H94.8175ZM80.4311 187.614V186.614H79.4311V187.614H80.4311ZM80.4311 193.614H79.4311V194.614H80.4311V193.614ZM96.0448 193.614H97.0448V192.614H96.0448V193.614ZM96.0448 201.25V202.25H97.0448V201.25H96.0448ZM71.9539 201.25V166.341H69.9539V201.25H71.9539ZM70.9539 167.341H96.1129V165.341H70.9539V167.341ZM95.1129 166.341V173.977H97.1129V166.341H95.1129ZM96.1129 172.977H80.4311V174.977H96.1129V172.977ZM79.4311 173.977V179.977H81.4311V173.977H79.4311ZM80.4311 180.977H94.8175V178.977H80.4311V180.977ZM93.8175 179.977V187.614H95.8175V179.977H93.8175ZM94.8175 186.614H80.4311V188.614H94.8175V186.614ZM79.4311 187.614V193.614H81.4311V187.614H79.4311ZM80.4311 194.614H96.0448V192.614H80.4311V194.614ZM95.0448 193.614V201.25H97.0448V193.614H95.0448ZM96.0448 200.25H70.9539V202.25H96.0448V200.25ZM110.376 201.25H109.376V202.25H110.376V201.25ZM110.376 166.341V165.341H109.376V166.341H110.376ZM136.779 171.83L137.633 171.309V171.309L136.779 171.83ZM136.728 184.528L135.889 183.984L135.887 183.988L136.728 184.528ZM132.075 188.415L131.674 187.499L131.672 187.499L132.075 188.415ZM116.103 189.727H115.103V190.727H116.103V189.727ZM116.103 182.364V181.364H115.103V182.364H116.103ZM126.041 181.955L126.369 182.899L126.377 182.896L126.041 181.955ZM127.864 180.608L127.047 180.032L127.039 180.043L127.864 180.608ZM127.864 175.767L127.03 176.318L127.036 176.327L127.042 176.335L127.864 175.767ZM126.041 174.369L125.676 175.301L125.684 175.304L125.692 175.307L126.041 174.369ZM119.853 173.909V172.909H118.853V173.909H119.853ZM119.853 201.25V202.25H120.853V201.25H119.853ZM130.83 185.227L131.708 184.749L131.424 184.227H130.83V185.227ZM139.558 201.25V202.25H141.241L140.436 200.772L139.558 201.25ZM129.262 201.25L128.379 201.72L128.661 202.25H129.262V201.25ZM120.739 185.227V184.227H119.075L119.856 185.697L120.739 185.227ZM111.376 201.25V166.341H109.376V201.25H111.376ZM110.376 167.341H125.444V165.341H110.376V167.341ZM125.444 167.341C127.913 167.341 130.026 167.79 131.808 168.655L132.682 166.856C130.578 165.835 128.156 165.341 125.444 165.341V167.341ZM131.808 168.655C133.586 169.518 134.95 170.748 135.925 172.35L137.633 171.309C136.45 169.366 134.79 167.879 132.682 166.856L131.808 168.655ZM135.925 172.35C136.892 173.938 137.398 175.875 137.398 178.205H139.398C139.398 175.58 138.825 173.267 137.633 171.309L135.925 172.35ZM137.398 178.205C137.398 180.555 136.876 182.463 135.889 183.984L137.567 185.073C138.807 183.162 139.398 180.855 139.398 178.205H137.398ZM135.887 183.988C134.899 185.526 133.506 186.697 131.674 187.499L132.475 189.331C134.643 188.383 136.353 186.963 137.569 185.069L135.887 183.988ZM131.672 187.499C129.835 188.308 127.654 188.727 125.103 188.727V190.727C127.87 190.727 130.337 190.272 132.477 189.33L131.672 187.499ZM125.103 188.727H116.103V190.727H125.103V188.727ZM117.103 189.727V182.364H115.103V189.727H117.103ZM116.103 183.364H123.194V181.364H116.103V183.364ZM123.194 183.364C124.384 183.364 125.45 183.219 126.369 182.899L125.712 181.01C125.063 181.236 124.231 181.364 123.194 181.364V183.364ZM126.377 182.896C127.343 182.551 128.134 181.984 128.689 181.173L127.039 180.043C126.754 180.459 126.329 180.79 125.704 181.013L126.377 182.896ZM128.682 181.183C129.265 180.355 129.512 179.334 129.512 178.205H127.512C127.512 179.052 127.327 179.633 127.047 180.032L128.682 181.183ZM129.512 178.205C129.512 177.065 129.266 176.036 128.687 175.199L127.042 176.335C127.327 176.748 127.512 177.344 127.512 178.205H129.512ZM128.699 175.216C128.148 174.383 127.36 173.793 126.389 173.432L125.692 175.307C126.312 175.537 126.74 175.879 127.03 176.318L128.699 175.216ZM126.405 173.438C125.474 173.074 124.394 172.909 123.194 172.909V174.909C124.221 174.909 125.039 175.051 125.676 175.301L126.405 173.438ZM123.194 172.909H119.853V174.909H123.194V172.909ZM118.853 173.909V201.25H120.853V173.909H118.853ZM119.853 200.25H110.376V202.25H119.853V200.25ZM129.952 185.706L138.679 201.728L140.436 200.772L131.708 184.749L129.952 185.706ZM139.558 200.25H129.262V202.25H139.558V200.25ZM130.145 200.78L121.622 184.758L119.856 185.697L128.379 201.72L130.145 200.78ZM120.739 186.227H130.83V184.227H120.739V186.227ZM151.916 166.341H152.916V165.341H151.916V166.341ZM151.916 201.25V202.25H152.916V201.25H151.916ZM142.438 201.25H141.438V202.25H142.438V201.25ZM142.438 166.341V165.341H141.438V166.341H142.438ZM150.916 166.341V201.25H152.916V166.341H150.916ZM151.916 200.25H142.438V202.25H151.916V200.25ZM143.438 201.25V166.341H141.438V201.25H143.438ZM142.438 167.341H151.916V165.341H142.438V167.341ZM179.077 177.864L178.106 178.102L178.293 178.864H179.077V177.864ZM178.379 176.278L177.553 176.842L177.559 176.852L178.379 176.278ZM177.185 175.102L176.608 175.919L176.619 175.927L176.631 175.934L177.185 175.102ZM175.549 174.369L175.281 175.333L175.292 175.336L175.302 175.338L175.549 174.369ZM169.447 175.256L168.886 174.428L168.882 174.43L169.447 175.256ZM166.89 178.545L165.966 178.164L165.963 178.17L166.89 178.545ZM166.856 188.977L165.922 189.335L166.856 188.977ZM169.344 192.318L168.77 193.137L169.344 192.318ZM177.049 192.847L176.65 191.93L176.646 191.931L177.049 192.847ZM179.214 191.057L178.363 190.531L179.214 191.057ZM179.93 188.33L180.033 187.335L178.93 187.22V188.33H179.93ZM181.566 188.5V189.5L181.67 187.505L181.566 188.5ZM173.589 188.5H172.589V189.5H173.589V188.5ZM173.589 181.75V180.75H172.589V181.75H173.589ZM189.066 181.75H190.066V180.75H189.066V181.75ZM187.038 194.756L186.179 194.242L186.179 194.244L187.038 194.756ZM181.481 199.938L181.933 200.829L181.935 200.828L181.481 199.938ZM164.435 199.562L163.945 200.434L164.435 199.562ZM158.418 193.392L157.537 193.865L157.539 193.867L158.418 193.392ZM157.583 176.193L156.654 175.823L156.652 175.828L157.583 176.193ZM161.265 170.551L161.964 171.266L161.967 171.263L161.265 170.551ZM166.702 167.057L167.059 167.991L167.063 167.99L166.702 167.057ZM179.077 166.75L178.761 167.699L178.768 167.701L179.077 166.75ZM183.799 169.239L183.178 170.023L183.186 170.028L183.799 169.239ZM187.123 173.04L187.99 172.542L187.123 173.04ZM188.657 177.864V178.864H189.766L189.652 177.76L188.657 177.864ZM180.049 177.625C179.875 176.917 179.595 176.272 179.198 175.705L177.559 176.852C177.799 177.194 177.985 177.606 178.106 178.102L180.049 177.625ZM179.204 175.714C178.813 175.141 178.322 174.658 177.74 174.27L176.631 175.934C177.003 176.183 177.308 176.484 177.553 176.842L179.204 175.714ZM177.763 174.286C177.185 173.877 176.524 173.586 175.796 173.4L175.302 175.338C175.824 175.471 176.254 175.668 176.608 175.919L177.763 174.286ZM175.817 173.406C175.103 173.208 174.336 173.114 173.521 173.114V175.114C174.183 175.114 174.768 175.19 175.281 175.333L175.817 173.406ZM173.521 173.114C171.765 173.114 170.204 173.536 168.886 174.428L170.007 176.084C170.94 175.453 172.094 175.114 173.521 175.114V173.114ZM168.882 174.43C167.585 175.317 166.619 176.58 165.966 178.164L167.814 178.927C168.342 177.648 169.081 176.717 170.011 176.081L168.882 174.43ZM165.963 178.17C165.323 179.752 165.021 181.614 165.021 183.727H167.021C167.021 181.795 167.298 180.203 167.817 178.921L165.963 178.17ZM165.021 183.727C165.021 185.859 165.31 187.737 165.922 189.335L167.79 188.62C167.288 187.309 167.021 185.687 167.021 183.727H165.021ZM165.922 189.335C166.539 190.945 167.48 192.233 168.77 193.137L169.919 191.499C169.004 190.858 168.287 189.918 167.79 188.62L165.922 189.335ZM168.77 193.137C170.074 194.051 171.656 194.477 173.452 194.477V192.477C171.976 192.477 170.819 192.131 169.919 191.499L168.77 193.137ZM173.452 194.477C174.985 194.477 176.332 194.255 177.452 193.762L176.646 191.931C175.857 192.279 174.807 192.477 173.452 192.477V194.477ZM177.448 193.763C178.57 193.275 179.464 192.555 180.065 191.582L178.363 190.531C178.009 191.104 177.46 191.577 176.65 191.93L177.448 193.763ZM180.065 191.582C180.653 190.629 180.93 189.532 180.93 188.33H178.93C178.93 189.218 178.729 189.939 178.363 190.531L180.065 191.582ZM179.826 189.324L181.462 189.495L181.67 187.505L180.033 187.335L179.826 189.324ZM181.566 187.5H173.589V189.5H181.566V187.5ZM174.589 188.5V181.75H172.589V188.5H174.589ZM173.589 182.75H189.066V180.75H173.589V182.75ZM188.066 181.75V186.591H190.066V181.75H188.066ZM188.066 186.591C188.066 189.63 187.421 192.166 186.179 194.242L187.896 195.269C189.359 192.823 190.066 189.916 190.066 186.591H188.066ZM186.179 194.244C184.936 196.33 183.225 197.926 181.027 199.047L181.935 200.828C184.464 199.539 186.458 197.682 187.897 195.268L186.179 194.244ZM181.028 199.046C178.837 200.157 176.297 200.727 173.384 200.727V202.727C176.563 202.727 179.421 202.104 181.933 200.829L181.028 199.046ZM173.384 200.727C170.132 200.727 167.322 200.038 164.925 198.691L163.945 200.434C166.685 201.974 169.842 202.727 173.384 202.727V200.727ZM164.925 198.691C162.527 197.343 160.654 195.426 159.298 192.917L157.539 193.867C159.069 196.699 161.207 198.896 163.945 200.434L164.925 198.691ZM159.3 192.92C157.961 190.422 157.271 187.416 157.271 183.864H155.271C155.271 187.675 156.012 191.021 157.537 193.865L159.3 192.92ZM157.271 183.864C157.271 181.077 157.693 178.648 158.514 176.559L156.652 175.828C155.723 178.193 155.271 180.877 155.271 183.864H157.271ZM158.512 176.563C159.352 174.453 160.505 172.694 161.964 171.266L160.566 169.836C158.889 171.477 157.587 173.478 156.654 175.823L158.512 176.563ZM161.967 171.263C163.436 169.815 165.131 168.726 167.059 167.991L166.346 166.122C164.16 166.956 162.23 168.196 160.563 169.839L161.967 171.263ZM167.063 167.99C168.997 167.241 171.079 166.864 173.316 166.864V164.864C170.849 164.864 168.521 165.281 166.342 166.124L167.063 167.99ZM173.316 166.864C175.288 166.864 177.101 167.145 178.761 167.699L179.394 165.801C177.509 165.173 175.48 164.864 173.316 164.864V166.864ZM178.768 167.701C180.448 168.247 181.915 169.022 183.178 170.023L184.42 168.455C182.956 167.296 181.275 166.412 179.386 165.799L178.768 167.701ZM183.186 170.028C184.461 171.019 185.481 172.188 186.255 173.537L187.99 172.542C187.083 170.96 185.887 169.595 184.413 168.449L183.186 170.028ZM186.255 173.537C187.024 174.877 187.494 176.35 187.662 177.967L189.652 177.76C189.456 175.877 188.904 174.134 187.99 172.542L186.255 173.537ZM188.657 176.864H179.077V178.864H188.657V176.864ZM193.485 201.25H192.485V202.25H193.485V201.25ZM193.485 166.341V165.341H192.485V166.341H193.485ZM202.962 166.341H203.962V165.341H202.962V166.341ZM202.962 179.977H201.962V180.977H202.962V179.977ZM215.508 179.977V180.977H216.508V179.977H215.508ZM215.508 166.341V165.341H214.508V166.341H215.508ZM224.985 166.341H225.985V165.341H224.985V166.341ZM224.985 201.25V202.25H225.985V201.25H224.985ZM215.508 201.25H214.508V202.25H215.508V201.25ZM215.508 187.614H216.508V186.614H215.508V187.614ZM202.962 187.614V186.614H201.962V187.614H202.962ZM202.962 201.25V202.25H203.962V201.25H202.962ZM194.485 201.25V166.341H192.485V201.25H194.485ZM193.485 167.341H202.962V165.341H193.485V167.341ZM201.962 166.341V179.977H203.962V166.341H201.962ZM202.962 180.977H215.508V178.977H202.962V180.977ZM216.508 179.977V166.341H214.508V179.977H216.508ZM215.508 167.341H224.985V165.341H215.508V167.341ZM223.985 166.341V201.25H225.985V166.341H223.985ZM224.985 200.25H215.508V202.25H224.985V200.25ZM216.508 201.25V187.614H214.508V201.25H216.508ZM215.508 186.614H202.962V188.614H215.508V186.614ZM201.962 187.614V201.25H203.962V187.614H201.962ZM202.962 200.25H193.485V202.25H202.962V200.25ZM228.531 173.977H227.531V174.977H228.531V173.977ZM228.531 166.341V165.341H227.531V166.341H228.531ZM258.871 166.341H259.871V165.341H258.871V166.341ZM258.871 173.977V174.977H259.871V173.977H258.871ZM248.371 173.977V172.977H247.371V173.977H248.371ZM248.371 201.25V202.25H249.371V201.25H248.371ZM239.031 201.25H238.031V202.25H239.031V201.25ZM239.031 173.977H240.031V172.977H239.031V173.977ZM229.531 173.977V166.341H227.531V173.977H229.531ZM228.531 167.341H258.871V165.341H228.531V167.341ZM257.871 166.341V173.977H259.871V166.341H257.871ZM258.871 172.977H248.371V174.977H258.871V172.977ZM247.371 173.977V201.25H249.371V173.977H247.371ZM248.371 200.25H239.031V202.25H248.371V200.25ZM240.031 201.25V173.977H238.031V201.25H240.031ZM239.031 172.977H228.531V174.977H239.031V172.977ZM9.0121 258.25L8.05294 258.533L8.26443 259.25H9.0121V258.25ZM0.432551 229.159V228.159H-0.904954L-0.526606 229.442L0.432551 229.159ZM9.23937 229.159L10.2156 228.942L10.0415 228.159H9.23937V229.159ZM13.2166 247.057L12.2405 247.274L12.4145 248.057H13.2166V247.057ZM13.4439 247.057V248.057H14.2146L14.4109 247.312L13.4439 247.057ZM18.1598 229.159V228.159H17.3892L17.1928 228.904L18.1598 229.159ZM25.0916 229.159L26.0588 228.905L25.8629 228.159H25.0916V229.159ZM29.8076 247.114L28.8404 247.368L29.0363 248.114H29.8076V247.114ZM30.0348 247.114V248.114H30.8375L31.0112 247.33L30.0348 247.114ZM34.0121 229.159V228.159H33.2094L33.0358 228.943L34.0121 229.159ZM42.8189 229.159L43.7781 229.442L44.1564 228.159H42.8189V229.159ZM34.2394 258.25V259.25H34.987L35.1985 258.533L34.2394 258.25ZM26.6826 258.25L25.7258 258.541L25.9415 259.25H26.6826V258.25ZM21.7394 242L22.6961 241.709L22.4804 241H21.7394V242ZM21.5121 242V241H20.771L20.5554 241.709L21.5121 242ZM16.5689 258.25V259.25H17.31L17.5256 258.541L16.5689 258.25ZM9.97125 257.967L1.39171 228.876L-0.526606 229.442L8.05294 258.533L9.97125 257.967ZM0.432551 230.159H9.23937V228.159H0.432551V230.159ZM8.26318 229.376L12.2405 247.274L14.1928 246.84L10.2156 228.942L8.26318 229.376ZM13.2166 248.057H13.4439V246.057H13.2166V248.057ZM14.4109 247.312L19.1268 229.414L17.1928 228.904L12.4769 246.802L14.4109 247.312ZM18.1598 230.159H25.0916V228.159H18.1598V230.159ZM24.1244 229.413L28.8404 247.368L30.7747 246.86L26.0588 228.905L24.1244 229.413ZM29.8076 248.114H30.0348V246.114H29.8076V248.114ZM31.0112 247.33L34.9884 229.375L33.0358 228.943L29.0585 246.897L31.0112 247.33ZM34.0121 230.159H42.8189V228.159H34.0121V230.159ZM41.8598 228.876L33.2802 257.967L35.1985 258.533L43.7781 229.442L41.8598 228.876ZM34.2394 257.25H26.6826V259.25H34.2394V257.25ZM27.6393 257.959L22.6961 241.709L20.7827 242.291L25.7258 258.541L27.6393 257.959ZM21.7394 241H21.5121V243H21.7394V241ZM20.5554 241.709L15.6122 257.959L17.5256 258.541L22.4688 242.291L20.5554 241.709ZM16.5689 257.25H9.0121V259.25H16.5689V257.25ZM69.8324 251.901L70.7018 252.395L70.7027 252.393L69.8324 251.901ZM64.733 256.943L65.2019 257.826L65.205 257.825L64.733 256.943ZM50.3864 256.929L49.9097 257.808L49.9144 257.811L50.3864 256.929ZM45.3012 251.872L44.4293 252.362L44.4318 252.366L45.3012 251.872ZM45.3012 235.523L44.4309 235.03L44.4302 235.031L45.3012 235.523ZM50.3864 230.48L50.857 231.362L50.8584 231.362L50.3864 230.48ZM64.733 230.48L64.261 231.362L64.264 231.363L64.733 230.48ZM69.8324 235.523L68.9621 236.015L68.963 236.017L69.8324 235.523ZM62.9006 239.301L61.9651 239.655L61.9686 239.664L62.9006 239.301ZM60.8693 236.574L60.2947 237.392L60.3047 237.399L60.8693 236.574ZM54.2642 236.574L54.833 237.396L54.8348 237.395L54.2642 236.574ZM52.233 239.301L51.3 238.941L51.2985 238.945L52.233 239.301ZM52.233 248.122L51.2975 248.476L51.301 248.485L52.233 248.122ZM54.2642 250.849L53.6896 251.668L53.6995 251.675L54.2642 250.849ZM60.8693 250.849L61.4381 251.672L61.4399 251.671L60.8693 250.849ZM62.9006 248.122L61.9676 247.762L61.9661 247.766L62.9006 248.122ZM70.7216 243.705C70.7216 246.816 70.1168 249.368 68.9621 251.408L70.7027 252.393C72.067 249.983 72.7216 247.071 72.7216 243.705H70.7216ZM68.963 251.406C67.7919 253.467 66.2263 255.009 64.261 256.062L65.205 257.825C67.52 256.585 69.354 254.766 70.7018 252.395L68.963 251.406ZM64.264 256.06C62.2805 257.113 60.0574 257.648 57.5739 257.648V259.648C60.3555 259.648 62.9051 259.046 65.2019 257.826L64.264 256.06ZM57.5739 257.648C55.0715 257.648 52.8403 257.108 50.8584 256.047L49.9144 257.811C52.2128 259.041 54.7732 259.648 57.5739 259.648V257.648ZM50.863 256.05C48.9053 254.988 47.3426 253.44 46.1705 251.378L44.4318 252.366C45.7786 254.736 47.6061 256.559 49.9097 257.808L50.863 256.05ZM46.173 251.382C45.0263 249.341 44.4262 246.797 44.4262 243.705H42.4262C42.4262 247.052 43.0761 249.953 44.4293 252.362L46.173 251.382ZM44.4262 243.705C44.4262 240.592 45.0268 238.044 46.1721 236.014L44.4302 235.031C43.0755 237.433 42.4262 240.34 42.4262 243.705H44.4262ZM46.1714 236.015C47.3432 233.945 48.9039 232.404 50.857 231.362L49.9158 229.598C47.6075 230.829 45.7781 232.65 44.4309 235.03L46.1714 236.015ZM50.8584 231.362C52.8403 230.301 55.0715 229.761 57.5739 229.761V227.761C54.7732 227.761 52.2128 228.368 49.9144 229.599L50.8584 231.362ZM57.5739 229.761C60.056 229.761 62.2781 230.3 64.261 231.362L65.205 229.599C62.9076 228.368 60.3569 227.761 57.5739 227.761V229.761ZM64.264 231.363C66.2264 232.405 67.791 233.946 68.9621 236.015L70.7027 235.03C69.3548 232.649 67.5198 230.828 65.2019 229.597L64.264 231.363ZM68.963 236.017C70.1167 238.047 70.7216 240.593 70.7216 243.705H72.7216C72.7216 240.339 72.0671 237.431 70.7018 235.029L68.963 236.017ZM64.5966 243.705C64.5966 241.88 64.3546 240.281 63.8326 238.939L61.9686 239.664C62.3746 240.708 62.5966 242.044 62.5966 243.705H64.5966ZM63.836 238.948C63.3224 237.589 62.5312 236.499 61.434 235.749L60.3047 237.399C61.0067 237.88 61.5697 238.608 61.9652 239.655L63.836 238.948ZM61.444 235.755C60.3539 234.99 59.0441 234.636 57.5739 234.636V236.636C58.7173 236.636 59.6044 236.908 60.2947 237.392L61.444 235.755ZM57.5739 234.636C56.1033 234.636 54.791 234.99 53.6937 235.753L54.8348 237.395C55.5367 236.908 56.4308 236.636 57.5739 236.636V234.636ZM53.6955 235.751C52.6108 236.501 51.8222 237.588 51.3 238.941L53.1659 239.661C53.5718 238.609 54.1374 237.877 54.833 237.396L53.6955 235.751ZM51.2985 238.945C50.788 240.285 50.5512 241.882 50.5512 243.705H52.5512C52.5512 242.042 52.7689 240.703 53.1675 239.657L51.2985 238.945ZM50.5512 243.705C50.5512 245.528 50.7881 247.128 51.2976 248.476L53.1684 247.769C52.7688 246.711 52.5512 245.366 52.5512 243.705H50.5512ZM51.301 248.485C51.8236 249.828 52.611 250.911 53.6896 251.668L54.8389 250.031C54.1371 249.538 53.5704 248.802 53.165 247.76L51.301 248.485ZM53.6995 251.675C54.7962 252.425 56.1063 252.773 57.5739 252.773V250.773C56.4278 250.773 55.5314 250.505 54.8289 250.024L53.6995 251.675ZM57.5739 252.773C59.041 252.773 60.3487 252.425 61.4381 251.672L60.3006 250.027C59.6097 250.505 58.7204 250.773 57.5739 250.773V252.773ZM61.4399 251.671C62.531 250.913 63.321 249.828 63.8351 248.478L61.9661 247.766C61.5711 248.803 61.007 249.536 60.2988 250.028L61.4399 251.671ZM63.8336 248.482C64.3545 247.132 64.5966 245.529 64.5966 243.705H62.5966C62.5966 245.364 62.3748 246.707 61.9676 247.762L63.8336 248.482ZM75.3757 258.25H74.3757V259.25H75.3757V258.25ZM75.3757 229.159V228.159H74.3757V229.159H75.3757ZM93.6002 230.338L93.1635 231.238L93.6002 230.338ZM97.3786 233.733L98.2327 233.213L97.3786 233.733ZM97.336 244.315L96.4971 243.771L96.4946 243.775L97.336 244.315ZM93.4581 247.554L93.0573 246.638L93.0554 246.639L93.4581 247.554ZM80.1485 248.648H79.1485V249.648H80.1485V248.648ZM80.1485 242.511V241.511H79.1485V242.511H80.1485ZM88.4297 242.17L88.7582 243.115L88.766 243.112L88.4297 242.17ZM89.9496 241.048L89.1317 240.473L89.1247 240.483L89.9496 241.048ZM89.9496 237.014L89.1153 237.565L89.121 237.574L89.1269 237.583L89.9496 237.014ZM88.4297 235.849L88.0653 236.781L88.0734 236.784L88.0815 236.787L88.4297 235.849ZM83.2735 235.466V234.466H82.2735V235.466H83.2735ZM83.2735 258.25V259.25H84.2735V258.25H83.2735ZM92.4212 244.898L93.2994 244.419L93.0152 243.898H92.4212V244.898ZM99.6939 258.25V259.25H101.377L100.572 257.772L99.6939 258.25ZM91.1144 258.25L90.2315 258.72L90.5136 259.25H91.1144V258.25ZM84.0121 244.898V243.898H82.3475L83.1292 245.367L84.0121 244.898ZM76.3757 258.25V229.159H74.3757V258.25H76.3757ZM75.3757 230.159H87.9325V228.159H75.3757V230.159ZM87.9325 230.159C89.9702 230.159 91.7048 230.53 93.1635 231.238L94.0368 229.438C92.2569 228.575 90.2131 228.159 87.9325 228.159V230.159ZM93.1635 231.238C94.6175 231.943 95.7289 232.947 96.5245 234.253L98.2327 233.213C97.229 231.565 95.8214 230.305 94.0368 229.438L93.1635 231.238ZM96.5245 234.253C97.3116 235.546 97.728 237.129 97.728 239.045H99.728C99.728 236.833 99.2448 234.875 98.2327 233.213L96.5245 234.253ZM97.728 239.045C97.728 240.979 97.2987 242.536 96.4971 243.771L98.1748 244.86C99.2293 243.235 99.728 241.279 99.728 239.045H97.728ZM96.4946 243.775C95.6902 245.027 94.5566 245.982 93.0573 246.638L93.8589 248.47C95.6929 247.668 97.1446 246.464 98.1773 244.856L96.4946 243.775ZM93.0554 246.639C91.5502 247.301 89.756 247.648 87.6485 247.648V249.648C89.9727 249.648 92.0517 249.265 93.8609 248.469L93.0554 246.639ZM87.6485 247.648H80.1485V249.648H87.6485V247.648ZM81.1485 248.648V242.511H79.1485V248.648H81.1485ZM80.1485 243.511H86.0575V241.511H80.1485V243.511ZM86.0575 243.511C87.0617 243.511 87.97 243.389 88.7582 243.115L88.1012 241.226C87.5826 241.406 86.9095 241.511 86.0575 241.511V243.511ZM88.766 243.112C89.5994 242.815 90.2892 242.322 90.7745 241.614L89.1247 240.483C88.9092 240.798 88.5858 241.053 88.0934 241.229L88.766 243.112ZM90.7674 241.624C91.2783 240.898 91.4894 240.011 91.4894 239.045H89.4894C89.4894 239.728 89.3406 240.176 89.1318 240.473L90.7674 241.624ZM91.4894 239.045C91.4894 238.073 91.2791 237.179 90.7723 236.446L89.1269 237.583C89.3398 237.891 89.4894 238.352 89.4894 239.045H91.4894ZM90.7839 236.463C90.3035 235.736 89.6162 235.223 88.7779 234.912L88.0815 236.787C88.569 236.968 88.8949 237.232 89.1153 237.565L90.7839 236.463ZM88.7941 234.918C87.9938 234.605 87.0723 234.466 86.0575 234.466V236.466C86.8989 236.466 87.5588 236.582 88.0653 236.781L88.7941 234.918ZM86.0575 234.466H83.2735V236.466H86.0575V234.466ZM82.2735 235.466V258.25H84.2735V235.466H82.2735ZM83.2735 257.25H75.3757V259.25H83.2735V257.25ZM91.543 245.376L98.8157 258.728L100.572 257.772L93.2994 244.419L91.543 245.376ZM99.6939 257.25H91.1144V259.25H99.6939V257.25ZM91.9972 257.78L84.895 244.428L83.1292 245.367L90.2315 258.72L91.9972 257.78ZM84.0121 245.898H92.4212V243.898H84.0121V245.898ZM102.094 258.25H101.094V259.25H102.094V258.25ZM102.094 229.159V228.159H101.094V229.159H102.094ZM120.93 230.906L120.458 231.788L120.463 231.79L120.93 230.906ZM125.987 235.906L125.108 236.384L125.11 236.388L125.987 235.906ZM126.001 251.517L126.878 251.996L126.879 251.995L126.001 251.517ZM120.972 256.517L121.443 257.4L121.446 257.398L120.972 256.517ZM109.992 251.545H108.992V252.545H109.992V251.545ZM116.683 250.849L116.269 249.939L116.266 249.94L116.683 250.849ZM119.012 248.449L118.109 248.02L118.106 248.026L119.012 248.449ZM118.998 238.96L118.095 239.389L118.098 239.395L118.998 238.96ZM116.612 236.56L116.205 237.473L116.208 237.474L116.612 236.56ZM109.992 235.864V234.864H108.992V235.864H109.992ZM113.288 257.25H102.094V259.25H113.288V257.25ZM103.094 258.25V229.159H101.094V258.25H103.094ZM102.094 230.159H113.174V228.159H102.094V230.159ZM113.174 230.159C116.036 230.159 118.453 230.716 120.458 231.788L121.401 230.024C119.051 228.767 116.296 228.159 113.174 228.159V230.159ZM120.463 231.79C122.476 232.854 124.018 234.379 125.108 236.384L126.865 235.429C125.588 233.078 123.759 231.27 121.397 230.022L120.463 231.79ZM125.11 236.388C126.206 238.38 126.776 240.805 126.776 243.705H128.776C128.776 240.543 128.153 237.77 126.863 235.424L125.11 236.388ZM126.776 243.705C126.776 246.605 126.21 249.037 125.122 251.04L126.879 251.995C128.159 249.641 128.776 246.865 128.776 243.705H126.776ZM125.123 251.038C124.032 253.037 122.496 254.564 120.499 255.636L121.446 257.398C123.786 256.141 125.602 254.334 126.878 251.996L125.123 251.038ZM120.502 255.634C118.505 256.699 116.111 257.25 113.288 257.25V259.25C116.373 259.25 119.103 258.646 121.443 257.4L120.502 255.634ZM109.992 252.545H113.004V250.545H109.992V252.545ZM113.004 252.545C114.546 252.545 115.923 252.297 117.099 251.759L116.266 249.94C115.416 250.33 114.34 250.545 113.004 250.545V252.545ZM117.096 251.76C118.361 251.186 119.3 250.197 119.918 248.872L118.106 248.026C117.664 248.973 117.049 249.585 116.269 249.939L117.096 251.76ZM119.915 248.878C120.546 247.55 120.822 245.799 120.822 243.705H118.822C118.822 245.663 118.558 247.075 118.109 248.02L119.915 248.878ZM120.822 243.705C120.822 241.608 120.541 239.855 119.898 238.525L118.098 239.395C118.553 240.338 118.822 241.748 118.822 243.705H120.822ZM119.901 238.531C119.269 237.2 118.307 236.215 117.015 235.645L116.208 237.474C117.018 237.832 117.647 238.447 118.095 239.389L119.901 238.531ZM117.018 235.646C115.814 235.11 114.388 234.864 112.776 234.864V236.864C114.195 236.864 115.326 237.082 116.205 237.473L117.018 235.646ZM112.776 234.864H109.992V236.864H112.776V234.864ZM108.992 235.864V251.545H110.992V235.864H108.992ZM147.112 238.25L146.115 238.33L146.189 239.25H147.112V238.25ZM146.047 236.034L145.4 236.797L145.406 236.801L146.047 236.034ZM141.189 235.537L141.536 236.475L141.546 236.471L141.189 235.537ZM140.053 236.318L139.25 235.722L140.053 236.318ZM139.669 237.455L140.668 237.509L140.668 237.493L140.669 237.477L139.669 237.455ZM139.854 238.406L138.959 238.853L138.968 238.872L138.978 238.889L139.854 238.406ZM140.564 239.159L139.987 239.976L139.995 239.982L140.004 239.987L140.564 239.159ZM143.59 240.239L143.799 239.261L143.791 239.259L143.59 240.239ZM145.976 240.75L145.766 241.728L145.769 241.728L145.976 240.75ZM150.109 242.099L149.671 242.998L150.109 242.099ZM152.922 244.074L152.201 244.767L152.206 244.772L152.922 244.074ZM154.527 246.602L153.587 246.944L153.59 246.952L154.527 246.602ZM155.067 249.67L156.067 249.675L156.067 249.662L155.067 249.67ZM153.632 254.528L154.446 255.11L153.632 254.528ZM149.57 257.554L149.204 256.623L149.203 256.624L149.57 257.554ZM136.629 257.469L136.259 258.398L136.26 258.398L136.629 257.469ZM132.254 254.017L131.42 254.568L131.424 254.574L132.254 254.017ZM130.692 248.023V247.023H129.688L129.692 248.027L130.692 248.023ZM138.192 248.023L139.19 247.97L139.14 247.023H138.192V248.023ZM138.859 250.267L138.023 250.816L138.859 250.267ZM140.536 251.645L140.137 252.562L140.142 252.564L140.536 251.645ZM145.251 251.801L145.596 252.74L145.251 251.801ZM146.544 250.935L147.327 251.557L146.544 250.935ZM146.999 249.67L147.998 249.69L147.999 249.67L147.998 249.649L146.999 249.67ZM146.558 248.506L145.78 249.133L145.789 249.145L145.799 249.156L146.558 248.506ZM145.195 247.597L144.797 248.514L144.809 248.519L145.195 247.597ZM142.624 246.83L142.838 245.853L142.834 245.852L142.624 246.83ZM139.726 246.205L139.514 247.182L139.515 247.182L139.726 246.205ZM133.632 243.406L132.967 244.153L132.972 244.157L133.632 243.406ZM131.43 238.023L132.43 238.027L132.43 238.018L131.43 238.023ZM132.908 233.179L132.097 232.594L132.096 232.595L132.908 233.179ZM137.07 229.926L136.67 229.01L136.668 229.01L137.07 229.926ZM149.286 229.94L148.869 230.849L149.286 229.94ZM153.249 233.264L152.41 233.809L152.414 233.815L153.249 233.264ZM154.669 238.25V239.25H155.674L155.669 238.245L154.669 238.25ZM148.109 238.17C148.015 236.999 147.56 235.995 146.688 235.267L145.406 236.801C145.803 237.133 146.058 237.607 146.115 238.33L148.109 238.17ZM146.694 235.272C145.811 234.522 144.581 234.239 143.192 234.239V236.239C144.359 236.239 145.033 236.485 145.4 236.797L146.694 235.272ZM143.192 234.239C142.307 234.239 141.507 234.345 140.832 234.603L141.546 236.471C141.913 236.331 142.448 236.239 143.192 236.239V234.239ZM140.842 234.599C140.206 234.835 139.643 235.192 139.25 235.722L140.855 236.915C140.954 236.781 141.149 236.618 141.536 236.475L140.842 234.599ZM139.25 235.722C138.876 236.225 138.683 236.806 138.669 237.432L140.669 237.477C140.674 237.251 140.737 237.074 140.855 236.915L139.25 235.722ZM138.671 237.401C138.643 237.906 138.732 238.398 138.959 238.853L140.748 237.959C140.692 237.846 140.657 237.704 140.668 237.509L138.671 237.401ZM138.978 238.889C139.219 239.326 139.573 239.683 139.987 239.976L141.141 238.342C140.911 238.18 140.791 238.036 140.729 237.923L138.978 238.889ZM140.004 239.987C140.415 240.266 140.909 240.499 141.462 240.697L142.137 238.814C141.687 238.653 141.357 238.488 141.124 238.331L140.004 239.987ZM141.462 240.697C142.02 240.897 142.665 241.069 143.388 241.218L143.791 239.259C143.132 239.124 142.583 238.974 142.137 238.814L141.462 240.697ZM143.38 241.216L145.766 241.728L146.185 239.772L143.799 239.261L143.38 241.216ZM145.769 241.728C147.32 242.057 148.616 242.484 149.671 242.998L150.548 241.201C149.311 240.597 147.851 240.125 146.183 239.772L145.769 241.728ZM149.671 242.998C150.733 243.516 151.569 244.11 152.201 244.767L153.642 243.38C152.817 242.523 151.777 241.8 150.548 241.201L149.671 242.998ZM152.206 244.772C152.841 245.423 153.297 246.146 153.587 246.944L155.467 246.261C155.075 245.183 154.461 244.221 153.638 243.376L152.206 244.772ZM153.59 246.952C153.896 247.77 154.058 248.675 154.067 249.679L156.067 249.662C156.056 248.45 155.859 247.31 155.464 246.252L153.59 246.952ZM154.067 249.665C154.058 251.409 153.625 252.817 152.818 253.947L154.446 255.11C155.533 253.588 156.056 251.758 156.067 249.675L154.067 249.665ZM152.818 253.947C152.001 255.091 150.815 255.991 149.204 256.623L149.935 258.485C151.847 257.735 153.369 256.617 154.446 255.11L152.818 253.947ZM149.203 256.624C147.597 257.257 145.622 257.591 143.249 257.591V259.591C145.8 259.591 148.038 259.233 149.937 258.484L149.203 256.624ZM143.249 257.591C140.816 257.591 138.74 257.231 136.998 256.539L136.26 258.398C138.287 259.203 140.624 259.591 143.249 259.591V257.591ZM137 256.54C135.297 255.86 134.005 254.832 133.085 253.46L131.424 254.574C132.587 256.308 134.212 257.581 136.259 258.398L137 256.54ZM133.089 253.466C132.192 252.108 131.701 250.315 131.692 248.019L129.692 248.027C129.702 250.597 130.253 252.801 131.42 254.568L133.089 253.466ZM130.692 249.023H138.192V247.023H130.692V249.023ZM137.193 248.076C137.248 249.102 137.509 250.031 138.023 250.816L139.695 249.718C139.415 249.291 139.23 248.723 139.19 247.97L137.193 248.076ZM138.023 250.816C138.537 251.598 139.254 252.179 140.137 252.562L140.934 250.728C140.377 250.486 139.977 250.148 139.695 249.718L138.023 250.816ZM140.142 252.564C141.024 252.942 142.03 253.114 143.135 253.114V251.114C142.232 251.114 141.506 250.973 140.929 250.726L140.142 252.564ZM143.135 253.114C144.053 253.114 144.883 253.001 145.596 252.74L144.907 250.862C144.483 251.018 143.903 251.114 143.135 251.114V253.114ZM145.596 252.74C146.288 252.486 146.891 252.105 147.327 251.557L145.761 250.312C145.61 250.503 145.351 250.7 144.907 250.862L145.596 252.74ZM147.327 251.557C147.757 251.015 147.985 250.382 147.998 249.69L145.999 249.65C145.994 249.906 145.918 250.115 145.761 250.312L147.327 251.557ZM147.998 249.649C147.984 248.978 147.755 248.366 147.318 247.855L145.799 249.156C145.929 249.308 145.994 249.473 145.999 249.692L147.998 249.649ZM147.337 247.878C146.915 247.354 146.289 246.97 145.58 246.674L144.809 248.519C145.369 248.753 145.652 248.975 145.78 249.133L147.337 247.878ZM145.592 246.679C144.874 246.368 143.948 246.096 142.838 245.853L142.409 247.806C143.459 248.036 144.246 248.276 144.797 248.514L145.592 246.679ZM142.834 245.852L139.937 245.227L139.515 247.182L142.413 247.807L142.834 245.852ZM139.938 245.227C137.475 244.693 135.616 243.819 134.292 242.655L132.972 244.157C134.622 245.608 136.825 246.599 139.514 247.182L139.938 245.227ZM134.297 242.66C133.067 241.563 132.422 240.06 132.43 238.027L130.43 238.019C130.42 240.531 131.243 242.617 132.967 244.153L134.297 242.66ZM132.43 238.018C132.422 236.363 132.859 234.959 133.72 233.763L132.096 232.595C130.968 234.164 130.42 235.989 130.43 238.028L132.43 238.018ZM133.719 233.764C134.605 232.534 135.843 231.556 137.471 230.842L136.668 229.01C134.755 229.849 133.218 231.039 132.097 232.594L133.719 233.764ZM137.469 230.843C139.103 230.13 141.003 229.761 143.192 229.761V227.761C140.778 227.761 138.597 228.169 136.67 229.01L137.469 230.843ZM143.192 229.761C145.431 229.761 147.313 230.136 148.869 230.849L149.702 229.031C147.83 228.173 145.65 227.761 143.192 227.761V229.761ZM148.869 230.849C150.429 231.565 151.596 232.554 152.41 233.809L154.087 232.72C153.045 231.114 151.57 229.888 149.702 229.031L148.869 230.849ZM152.414 233.815C153.232 235.055 153.66 236.522 153.669 238.255L155.669 238.245C155.659 236.171 155.14 234.315 154.083 232.713L152.414 233.815ZM154.669 237.25H147.112V239.25H154.669V237.25Z" fill="black" mask="url(#path-1-outside-1_8_88)"/>
</svg>
